<?xml version="1.0" encoding="UTF-8"?>
<svg width="727px" height="1000px" viewBox="0 0 727 1000" version="1.1" xmlns="http://www.w3.org/2000/svg" xmlns:xlink="http://www.w3.org/1999/xlink">
    <!-- Generator: Sketch 42 (36781) - http://www.bohemiancoding.com/sketch -->
    <title>T-Shirt</title>
    <desc>Created with Sketch.</desc>
    <defs>
        <path d="M0.416858399,30.7365341 C1.97680021,33.2140887 3.50615492,33.2464236 6.84888736,32.2536539 C10.1916198,31.2608842 19.3769242,28.6793335 31.3277389,28.6793335 C43.2785536,28.6793335 49.3203786,28.1986791 58.0604223,30.2261665 C66.800466,32.2536539 80.4344448,37.6754349 80.4344448,37.6754349 C80.4344448,37.6754349 99.4045606,46.0475595 103.765406,48.0400902 C108.126252,50.0326209 113.66339,50.9537294 115.893626,50.9537294 C118.123862,50.9537294 120.135,50.5131035 123.792743,49.2889176 C127.450487,48.0647317 130.183597,41.7099715 128.573725,37.6754349 C126.963852,33.6408982 124.406083,27.3188799 100.745586,15.2712622 C77.08509,3.22364455 70.8151344,-1.31840081 43.5555853,0.356121169 C16.2960361,2.03064315 2.69909259,22.5767712 2.69909259,22.5767712 C2.69909259,22.5767712 -1.14308341,28.2589794 0.416858399,30.7365341 Z" id="path-1"></path>
    </defs>
    <g id="WordCamp-Raleigh-2017-T-Shirt" stroke="none" stroke-width="1" fill="none" fill-rule="evenodd">
        <g id="T-Shirt">
            <g id="Shirt" transform="translate(26.000000, 26.000000)">
                <path d="M317.879661,790.977732 C415.594832,793.961401 535.874003,798.436905 544.638532,758.903287 C553.216581,719.556147 524.871722,544.638532 524.871722,520.02326 C524.871722,495.407987 539.790069,412.797642 537.179358,340.257181 C537.179358,340.257181 538.484714,369.907396 602.820084,347.716355 C667.155454,325.525314 680.768446,313.217678 673.495752,289.907761 C666.036578,266.597844 616.433075,148.183467 602.820084,111.260559 C589.207093,74.337651 573.16987,65.7596016 520.396218,44.6874369 C467.809046,23.8017514 462.774104,27.5313381 437.972353,7.7645287 C437.972353,7.7645287 338.019429,37.9741808 250.93358,2.91606602 C250.93358,2.91606602 228.55606,21.3775201 143.148525,48.4170235 C57.7409903,75.456527 31.6338835,199.838243 14.2913054,245.52568 C-3.05127268,291.026637 -12.9346774,323.101083 58.8598663,337.83295 C130.65441,352.564818 130.65441,330.373777 130.65441,330.373777 C130.65441,330.373777 138.113583,487.948814 129.349055,538.484714 C120.771005,589.020613 92.2396671,754.054824 108.27689,767.481336 C124.687071,781.094327 277.040687,789.672377 317.879661,790.977732 L317.879661,790.977732 Z" id="Shape" fill="#0F4E34"></path>
                <path d="M544.825011,764.311187 C553.40306,724.40461 524.871722,547.80868 524.871722,523.006929 C524.871722,498.205177 539.790069,414.848915 537.365838,341.562537 C537.365838,341.562537 538.671193,371.39923 603.193043,349.02171 C667.714892,326.64419 681.514363,314.150075 674.05519,290.653679 C666.596016,266.970803 616.806034,147.624029 603.193043,110.328162 C589.580051,73.0322957 573.356349,64.2677669 520.582698,43.1956022 C467.809046,22.1234374 462.774104,25.8530241 437.972353,5.89973536 C437.972353,5.89973536 344.173247,95.9692538 250.187663,0.864793341 C250.187663,0.864793341 227.810143,19.5127268 142.029649,46.9251889 C56.2491556,74.337651 30.1420488,199.838243 12.7994707,245.898638 C-4.54310735,291.959034 -14.6129914,324.219959 57.5545109,339.138305 C129.722013,354.056652 129.722013,331.679132 129.722013,331.679132 C129.722013,331.679132 137.181187,490.746004 128.416658,541.841342 C119.652129,592.7502 91.1207911,759.462725 107.344493,773.075716 C123.568195,786.688707 276.29477,795.266757 317.320223,796.572112 C415.408353,799.555781 536.060482,804.031285 544.825011,764.311187 Z" id="Shape" fill="#1C704D"></path>
                <path d="M148.369947,583.985671 C148.369947,583.985671 214.010672,524.498764 231.166771,358.905115 C231.166771,358.905115 190.514276,491.678401 142.029649,557.319126 C93.5450224,622.959852 148.369947,583.985671 148.369947,583.985671 L148.369947,583.985671 Z" id="Shape" fill="#0F4E34"></path>
                <path d="M148.742905,439.277708 C148.742905,439.277708 187.344127,404.219593 197.600491,306.690901 C197.600491,306.690901 173.731136,385.012222 145.013319,423.613444 C116.481981,462.401145 148.742905,439.277708 148.742905,439.277708 L148.742905,439.277708 Z" id="Shape" fill="#0F4E34"></path>
                <path d="M525.43116,532.890334 C525.43116,532.890334 543.706135,514.42888 430.699659,280.956753 C430.699659,280.956753 481.049079,393.030833 502.121243,498.205177 C523.193408,603.379522 525.43116,532.890334 525.43116,532.890334 L525.43116,532.890334 Z" id="Shape" fill="#0F4E34"></path>
                <path d="M532.330896,445.618005 C532.330896,445.618005 544.638532,424.172882 461.468749,252.238936 C461.468749,252.238936 499.697012,342.681413 515.174797,420.070336 C530.652582,497.45926 532.330896,445.618005 532.330896,445.618005 L532.330896,445.618005 Z" id="Shape" fill="#0F4E34"></path>
                <path d="M58.4869076,187.530607 C58.4869076,187.530607 61.8435356,238.439465 129.535534,331.679132 C129.535534,331.679132 84.5940144,249.068787 72.4728576,199.838243 C60.3517009,150.607699 58.4869076,187.530607 58.4869076,187.530607 L58.4869076,187.530607 Z" id="Shape" fill="#0F4E34"></path>
                <path d="M84.0345764,147.064591 C84.0345764,147.064591 75.8294857,208.416292 129.535534,331.679132 C129.535534,331.679132 98.9529231,225.012953 96.9016504,164.22069 C94.8503777,103.614906 84.0345764,147.064591 84.0345764,147.064591 L84.0345764,147.064591 Z" id="Shape" fill="#0F4E34"></path>
                <path d="M609.906299,199.092326 C609.906299,199.092326 604.125439,247.390473 537.365838,341.749016 C537.365838,341.749016 582.680316,259.51163 596.479787,212.145879 C610.092778,164.407169 609.906299,199.092326 609.906299,199.092326 L609.906299,199.092326 Z" id="Shape" fill="#0F4E34"></path>
                <path d="M586.223423,158.066872 C586.223423,158.066872 590.139489,218.113218 537.365838,341.562537 C537.365838,341.562537 569.440283,235.455796 574.288746,175.40945 C579.323688,115.549584 586.223423,158.066872 586.223423,158.066872 L586.223423,158.066872 Z" id="Shape" fill="#0F4E34"></path>
                <path d="M160.304624,478.251889 C160.304624,478.251889 221.656325,427.52951 217.740259,324.965876 C217.740259,324.965876 192.565549,413.54356 150.048261,463.89298 C107.717452,514.2424 160.304624,478.251889 160.304624,478.251889 L160.304624,478.251889 Z" id="Shape" fill="#0F4E34"></path>
                <path d="M524.685243,610.652216 C532.517375,646.269769 537.925276,663.052909 541.654862,669.393206 C537.738796,631.724381 532.517375,591.258365 528.787788,561.79463 C510.885772,503.24012 488.508252,457.366203 427.52951,332.23857 C427.52951,332.425049 499.697012,498.391657 524.685243,610.652216 L524.685243,610.652216 Z" id="Shape" fill="#0F4E34"></path>
            </g>
            <text id="because-the-only-thi" transform="translate(401.315353, 431.588457) rotate(-30.000000) translate(-401.315353, -431.588457) " font-family="Biko-Bold, Biko" font-size="15" font-weight="bold" fill="#9CCFB3">
                <tspan x="269.600353" y="427.588457">because the only thing worth discussing</tspan>
                <tspan x="302.885353" y="445.588457">more than BBQ is WordPress.</tspan>
            </text>
            <text id="2017" transform="translate(363.000000, 302.000000) rotate(-30.000000) translate(-363.000000, -302.000000) " font-family="Biko-Bold, Biko" font-size="172" font-weight="bold" fill="#9CCFB3">
                <tspan x="192.978" y="362">2017</tspan>
            </text>
            <g id="Squirrel-Wapuu" transform="translate(252.000000, 177.000000)">
                <path d="M157.228151,208.399645 C157.228151,208.399645 158.491835,208.016869 163.283522,204.405845 C168.075209,200.79482 174.226711,194.884519 175.427473,192.966271 C176.628234,191.048023 180.399623,186.486614 180.974661,184.989594 C181.549698,183.492574 186.208986,174.794042 186.820728,172.46549 C187.43247,170.136938 191.1606,160.753691 191.839196,152.010589 C192.517793,143.267487 192.349564,143.52267 192.349564,140.613838 C192.349564,137.705005 191.84007,132.272737 191.240563,129.142803 C190.641056,126.01287 187.539962,115.533294 186.477279,114.015737 C185.414596,112.498181 182.398708,105.844177 181.278347,104.032547 C180.157985,102.220917 176.311155,96.6060004 175.554627,95.3816427 C174.798099,94.157285 173.178975,91.7870277 170.346082,87.7678595 C167.513189,83.7486913 166.103629,81.9541609 164.606414,79.8488608 C163.109199,77.7435607 162.557119,77.047614 161.662188,75.5570545 C160.767256,74.0664951 160.714627,74.5842399 160.076684,72.3043355 C159.438741,70.0244312 159.026673,69.5543373 159.3675,67.3562176 C159.708328,65.1580979 159.506671,62.5138436 160.58443,61.0128912 C161.662188,59.5119388 162.681175,56.6765152 164.655572,55.646604 C166.629969,54.6166929 169.034333,53.3977972 170.721648,53.1605287 C172.408963,52.9232602 177.998755,53.3560676 178.889932,53.6879376 C179.781108,54.0198076 182.570538,54.8741138 187.946552,57.1195911 C193.322566,59.3650684 194.593882,60.2457211 198.639581,61.9370584 C202.685281,63.6283958 203.621397,63.9053478 206.789076,64.9968603 C209.956754,66.0883727 210.078868,66.618544 213.15993,66.9404516 C216.240993,67.2623592 217.807639,67.1233187 219.377631,66.3121053 C220.947623,65.5008919 222.857132,62.7873797 222.857132,62.7873797 C222.857132,62.7873797 223.436102,57.5427854 222.857132,56.2926471 C222.278162,55.0425089 220.93233,48.4835435 218.241102,44.3007584 C215.549875,40.1179732 214.164049,36.8311498 206.789076,29.5909878 C199.414102,22.3508258 192.258755,17.6244426 191.150768,17.1057729 C190.042781,16.5871031 172.75853,3.462181 154.143225,1.0864377 C135.527919,-1.28930561 126.16652,1.40672827 124.582983,2.04905725 C123.668649,2.4199375 114.857518,4.34570497 106.542278,10.2568855 C98.2270374,16.1680661 94.5558693,21.4905782 91.5843146,26.1538723 C84.5527263,37.1886226 84.7878687,43.3339719 85.9492979,54.8769016 C87.1107271,66.4198314 98.1367256,79.6933036 99.7021294,81.5243782 C101.267533,83.3554527 132.804357,105.457032 132.804357,105.457032 L154.441667,122.420634 C154.441667,122.420634 157.242453,123.985335 159.8818,129.571023 C162.521148,135.156711 162.929136,134.673818 164.606414,144.238408 C166.283692,153.802999 166.522695,154.985402 165.589134,162.116783 C164.655572,169.248164 160.666141,179.182634 160.666141,179.182634 L154.687675,197.005079 L152.722672,207.614431 L154.780092,209.024933 L156.400552,208.72212 L157.228151,208.399645 Z" id="Path-2" fill="#000000"></path>
                <path d="M182.676403,169.8029 C183.288145,167.474349 186.20659,156.054002 186.885187,147.310899 C187.563783,138.567797 187.226451,135.124127 186.127064,129.655154 C185.027676,124.186182 177.26642,109.050377 176.146058,107.238747 C175.025697,105.427117 165.310143,90.5104466 164.655361,89.6651504 C164.000578,88.8198542 156.070463,79.3213878 154.397323,76.4925998 C152.724183,73.6638119 152.838052,73.22623 152.567778,69.2286019 C152.297504,65.2309738 153.350808,61.0135638 153.350808,61.0135638 C153.350808,61.0135638 156.195403,54.5121724 159.367289,51.3788476 C162.539175,48.2455228 169.309614,46.1661567 172.195079,46.4193688 C175.47716,46.7073855 180.015183,48.0561408 180.489425,48.2327465 C181.380602,48.5646165 190.60851,52.5726182 190.60851,52.5726182 C190.60851,52.5726182 204.123855,59.6843361 205.988138,60.2071569 C207.852422,60.7299778 214.257141,63.7377815 216.119458,61.0135638 C217.981775,58.2893461 216.698428,54.500916 216.119458,53.2507778 C215.540488,52.0006395 213.051572,46.0040397 211.264412,43.7425611 C209.477252,41.4810824 203.559067,35.1884319 200.142507,32.0368801 C196.725948,28.8853282 185.790496,20.3518313 185.027676,19.9947411 C183.919689,19.4760713 169.325136,8.95061526 150.709831,6.57487195 C146.264001,6.00748132 139.256327,5.1712527 131.941153,6.57487195 C123.781239,8.14057772 114.836449,11.6790356 108.337966,17.079354 C102.927018,21.5759176 97.6163146,27.1282384 94.8787704,32.5616672 C92.1412263,37.995096 91.7141041,46.1087339 91.6352276,47.4047101 C91.346245,52.1528217 93.8565536,58.4366515 94.8787704,61.0135638 C96.8278238,65.9269436 100.288317,73.7017459 106.863668,79.6046182 C113.439019,85.5074904 134.295485,98.6674217 134.295485,98.6674217 C134.295485,98.6674217 146.121704,107.290607 154.911758,115.354377 C163.701812,123.418147 166.581961,130.692899 166.811314,131.207231 C167.513943,132.782903 169.671717,136.836686 170.721437,145.447708 C171.771157,154.05873 171.641225,155.619951 170.721437,163.282606 C169.801649,170.945261 167.969783,173.440555 166.811314,178.022527 C165.652845,182.604498 165.20287,184.01279 164.655361,187.275123 C164.107852,190.537455 163.955839,196.317771 171.606496,188.484624 C179.257154,180.651477 182.064661,172.131452 182.676403,169.8029 Z" id="Path-3" fill="#D36E2A"></path>
                <path d="M182.675572,169.802359 C183.287314,167.473807 186.205759,156.05346 186.884356,147.310358 C187.562952,138.567256 187.22562,135.123586 186.126233,129.654613 C185.026845,124.185641 177.265589,109.049836 176.145227,107.238206 C175.024866,105.426576 165.309312,90.5099055 164.65453,89.6646093 C163.999747,88.8193131 156.069632,79.3208466 154.396492,76.4920587 C152.723352,73.6632707 152.837221,73.2256889 152.566947,69.2280607 C152.296673,65.2304326 153.349977,61.0130227 153.349977,61.0130227 C153.349977,61.0130227 156.194572,54.5116312 159.366458,51.3783064 C162.538344,48.2449817 169.308783,46.1656156 172.194248,46.4188276 C175.476329,46.7068443 190.607679,52.572077 190.607679,52.572077 C190.607679,52.572077 203.228109,59.2723736 205.005024,59.8546457 C207.507267,60.6745983 217.102411,64.6880154 214.62685,59.8546457 C212.15129,55.021276 201.752742,45.4946604 201.752742,45.4946604 C201.752742,45.4946604 195.867971,38.9792145 180.488594,33.8610776 C165.109218,28.7429406 155.984682,28.0904367 148.933997,31.1746568 C145.902035,32.5009444 141.725759,35.1549006 139.296955,39.614947 C136.077687,45.5265304 135.030006,53.4409715 134.985048,54.1796473 C134.696066,58.9277588 133.618628,65.1114962 139.296955,77.6425704 C144.975281,90.1736445 154.396492,97.0173098 154.396492,97.0173098 C154.396492,97.0173098 165.823148,110.487809 170.720606,118.61005 C175.618064,126.732292 177.244995,128.254174 179.068042,137.934103 C180.89109,147.614032 179.627131,154.701948 178.616883,160.53731 C177.606635,166.372672 177.255025,167.202173 175.856616,174.075158 C174.458207,180.948142 172.617443,187.413316 172.617443,187.413316 C172.617443,187.413316 178.674537,180.232159 180.488594,176.256455 C181.848249,173.276624 182.515793,170.410547 182.675572,169.802359 Z" id="Path-4" fill="#FDEACB"></path>
                <path d="M172.027758,90.7007078 C169.575757,90.7007078 166.789066,90.715026 163.826082,90.7302392 C160.480979,90.7463472 156.910364,90.764245 153.346014,90.764245 C147.616922,90.764245 139.593329,90.7230801 133.88303,90.39555 C124.739034,83.7474048 114.204377,80.1991621 102.546632,79.846575 C77.2865441,79.0724943 54.9214286,89.9937439 42.809974,108.766767 C38.7167426,112.658648 31.0162057,116.986341 28.9346892,117.448999 C25.4428246,118.22487 23.18233,121.282712 23.559974,124.718199 C23.8320208,127.194362 25.5922714,129.976578 29.5199479,131.269696 C29.0662382,131.715351 28.6349007,132.183379 28.2321998,132.667515 C25.5698991,135.874805 24.4566547,139.521486 25.0973967,142.93639 C25.226261,143.621876 25.4052392,144.276041 25.6343313,144.897991 C19.8748129,154.701521 16.8456069,165.828596 16.8456069,177.269777 C16.8456069,180.158485 17.0397982,183.034665 17.4263911,185.881313 C16.5207615,185.723812 15.6088676,185.643272 14.6987634,185.643272 C10.318272,185.643272 6.25815164,187.543126 3.56095021,190.855117 C0.58275301,194.514326 -0.461584771,199.408485 0.620338432,204.637333 C2.82445493,215.288326 18.9584445,233.242524 31.8225024,236.330792 C33.0896681,236.633266 34.2995607,236.788082 35.4181744,236.788082 C38.8599252,236.788082 41.7029938,235.337463 43.425659,232.702904 C43.9724374,231.865286 44.3670843,230.977555 44.6418158,230.068345 C53.4206964,236.124073 63.5696551,239.872771 74.3217703,240.962748 C76.6511715,248.563057 82.9055646,249.830223 86.8072893,249.830223 C92.6911975,249.830223 97.7732834,247.437284 101.398487,243.028157 C101.726017,243.033526 102.054442,243.037105 102.383762,243.037105 C104.870664,243.037105 107.961617,242.866181 111.498226,242.320298 C113.983505,241.936689 125.824083,239.903179 134.686774,235.606428 C140.675727,232.702904 148.398212,228.787183 155.124196,215.730498 C169.555624,187.564153 167.146128,150.32103 157.967231,124.380825 C157.330068,122.580304 156.641897,120.817369 155.903612,119.095599 C157.021331,119.224463 158.124732,119.28979 159.212024,119.28979 C161.74904,119.28979 164.221624,118.933623 166.559974,118.232029 C180.957875,113.91239 187.463733,103.223812 187.327709,97.3604865 C187.256118,94.2650586 185.426066,91.8184266 182.666222,91.1284657 C181.508233,90.8394159 179.620908,90.7007078 172.027758,90.7007078 Z" id="Fill-1" fill="#000000"></path>
                <path d="M32.2417589,210.688765 C30.7974048,208.033623 29.227766,205.297942 27.6876586,202.839676 C29.0085177,205.579832 30.5298324,208.203653 32.2417589,210.688765" id="Fill-3" fill="#005683"></path>
                <path d="M111.337146,144.389335 C105.380752,143.158859 98.2726326,144.734762 92.0021315,146.125423 C87.2493654,147.1805 83.1453954,148.094183 79.9515295,147.75502 C75.046632,147.239562 71.1592255,144.657802 70.0513505,141.177571 C69.2710055,138.726464 69.4848845,134.796103 74.9410348,129.994118 C77.2122681,127.995827 79.9282623,126.32596 82.9073544,124.967515 C78.6118776,124.974675 74.3665148,124.147795 70.2876017,121.982159 C65.0184836,129.299683 51.6461276,134.601017 47.5305239,132.77365 C46.6168402,132.367369 45.5966645,131.670249 44.6534494,130.698397 C45.477644,131.930662 46.2696225,133.355329 46.6114709,135.018931 C47.3050114,138.393565 46.1237553,142.00445 43.4507159,144.676595 C41.1231045,147.005101 38.1914416,148.340278 35.4083306,148.340278 C33.4628376,148.340278 31.8010251,147.662846 30.5562317,146.480695 C25.0517572,155.444818 21.8561015,165.977685 21.8561015,177.269419 C21.8561015,182.527799 22.558591,187.617938 23.8490238,192.469143 C29.3740807,197.023243 38.4742271,215.115254 40.4590953,219.653246 C40.5673772,219.901131 40.6899772,220.215238 40.815262,220.577668 C50.2858933,229.335072 62.6228604,235.036422 76.2699479,236.089709 C76.0990238,233.832794 76.1750895,231.427327 76.2538399,229.053181 C76.3504881,226.142995 76.4507159,223.134372 76.0712821,220.661788 C75.7580703,218.626806 75.2363488,216.445062 74.6824113,214.135348 C72.6205825,205.520233 70.2831272,195.755182 78.5205988,190.263236 C80.1009762,189.20995 81.8164823,188.676595 83.6214774,188.676595 C91.0249105,188.676595 97.7527009,197.601342 101.223983,204.387301 C105.952587,196.735088 113.721136,191.882094 122.960885,190.946933 C127.64027,190.470851 132.308916,191.077587 136.156948,192.503148 C137.514497,187.566035 138.210722,182.449048 138.210722,177.269419 C138.210722,171.073194 137.229027,164.979881 135.292483,159.15772 C126.356996,151.145761 120.195672,146.222966 111.337146,144.389335 Z" id="Fill-5" fill="#D6B68F"></path>
                <path d="M58.4473885,133.839017 C29.0940693,136.261487 10.0337862,180.492369 35.9945737,203.640514 C62.3052636,227.099186 94.8112838,196.789229 93.6881956,168.664595 C92.8174666,146.861471 74.763041,133.055093 58.4473885,133.839017 M31.4887976,154.158412 C40.4198096,140.411097 57.5014888,129.228539 76.2503498,142.959746 C76.1241702,142.954377 64.231069,143.50026 72.8757159,156.287358 C77.5470469,163.197706 77.8450456,168.740661 74.1482509,180.014497 C72.8148633,185.572665 72.4121624,187.250586 71.2201676,192.973414 C65.5161324,179.341539 60.8609095,167.733908 57.1846974,152.891246 C60.4161487,152.416954 64.0789375,151.88002 62.1978767,149.800293 C61.9607306,149.53809 44.9327449,151.227644 44.7707696,151.255386 C43.4633339,151.478213 43.2342418,153.016531 43.232452,153.031744 C43.0964286,154.246111 43.3165718,154.233583 47.0053124,154.01165 C47.977164,159.251237 48.4210299,161.64328 50.8264969,169.291913 C49.0895135,176.510999 47.2925724,183.97439 47.0464774,195.533697 C39.2877725,180.091458 36.1825008,169.366189 35.590083,155.958038 C36.6916938,155.287764 38.1628946,155.550862 39.1356411,154.553954 C39.7996502,153.874732 40.1227058,152.339993 39.2949317,152.16191 C36.361479,151.529222 34.1215669,153.608054 31.4887976,154.158412 M72.2689798,202.310706 C75.4064676,188.782639 80.624577,175.850569 83.6949479,162.30371 C84.2873658,159.685259 84.8001383,155.609925 83.8775057,151.065669 C93.0215018,165.351708 91.9717947,187.539636 72.2689798,202.310706 M45.4848926,206.318028 C25.6988529,197.326163 22.0664904,176.010755 28.7065815,159.601139 C28.9580459,175.839831 33.5058819,188.500748 45.4848926,206.318028 M57.0826798,208.22683 C54.5546128,208.390596 52.4972584,208.245623 49.9835096,207.723007 C49.2255369,200.167442 48.7360316,190.727237 52.5437927,174.271982 C59.4595103,192.18412 67.0768223,205.316645 67.1305158,205.390026 C65.8356085,206.007501 61.8962984,207.887667 57.0826798,208.22683" id="Fill-9" fill="#101816"></path>
                <g id="Acorn-Top-Shell" transform="translate(17.226651, 121.196713)">
                    <mask id="mask-2" fill="white">
                        <use xlink:href="#path-1"></use>
                    </mask>
                    <use id="Path-6" fill="#101816" xlink:href="#path-1"></use>
                    <path d="M2.22062304,30.2261665 C3.78056485,32.7037212 5.49606388,31.2189362 8.83879632,30.2261665 C12.1815288,29.2333968 20.6384234,26.7658923 32.589238,26.7658923 C44.5400527,26.7658923 51.1127823,26.5544044 59.852826,28.5818917 C68.5928697,30.6093791 82.7153681,36.2352197 82.7153681,36.2352197 C82.7153681,36.2352197 100.698395,44.6894925 105.05924,46.6820232 C109.420086,48.674554 114.530753,49.2889176 116.760989,49.2889176 C118.991225,49.2889176 121.801742,49.1254951 124.10495,47.6354667 C126.408158,46.1454382 127.88333,40.1805179 126.408158,37.0274254 C124.932986,33.874333 115.50517,24.262994 93.9202946,13.8354166 C72.3354192,3.40783926 70.9073327,0.277808549 43.6477835,1.95233053 C16.3882343,3.62685251 5.04250097,22.4963709 5.04250097,22.4963709 C5.04250097,22.4963709 0.660681236,27.7486119 2.22062304,30.2261665 Z" id="Path-7" fill="#83413B" mask="url(#mask-2)"></path>
                    <path d="M25.6665047,5.92734191 C20.5370402,18.967134 22.4250352,12.4896854 20.5357381,28.0855069" id="Path-8" stroke="#101816" mask="url(#mask-2)"></path>
                    <path d="M11.4098601,14.5419785 C11.0719764,17.2310151 9.83350335,19.3400229 9.49561972,22.0290595 C9.1577361,24.7180961 8.99447896,28.7030596 8.72518711,30.8462106" id="Path-9" stroke="#101816" mask="url(#mask-2)"></path>
                    <path d="M41.5975743,1.11861373 C36.4681098,14.1584058 38.6252712,11.9240427 36.7359741,27.5198641" id="Path-10" stroke="#101816" mask="url(#mask-2)"></path>
                    <path d="M57.1449943,1.25188607 C54.9443189,6.32897428 54.8655723,7.4779541 54.5208401,9.07846805 C54.1761078,10.678982 53.6568667,20.9077398 53.6445198,28.0346012" id="Path-11" stroke="#101816" mask="url(#mask-2)"></path>
                    <path d="M73.9189568,3.91776981 C71.0282774,8.54833679 71.3703964,7.56833951 69.5087347,14.0412241 C67.6470731,20.5141087 67.6470731,31.8433499 67.6470731,31.8433499" id="Path-12" stroke="#101816" mask="url(#mask-2)"></path>
                    <path d="M89.7652564,10.779329 C82.3233142,22.9348662 83.1038242,23.1113899 82.5742305,27.9944011 C82.0446368,32.8774122 82.1711835,34.0450338 81.7942596,36.7589144" id="Path-13" stroke="#101816" mask="url(#mask-2)"></path>
                    <path d="M105.64826,19.578799 C104.332661,22.4072244 100.275454,29.7298064 98.2413771,44.4806264" id="Path-14" stroke="#101816" mask="url(#mask-2)"></path>
                    <path d="M120.443238,29.3286538 C119.620259,32.682602 118.149829,34.6553229 117.32685,38.0092711 C116.505408,41.3569553 116.331418,46.0858667 115.509977,49.4335508" id="Path-15" stroke="#101816" mask="url(#mask-2)"></path>
                    <path d="M11.5571151,14.76876 C16.6761261,24.8352855 13.6342236,20.6853698 20.0690665,27.6459267" id="Path-16" stroke="#101816" mask="url(#mask-2)"></path>
                    <path d="M20.5588969,27.9391258 C23.5275637,24.4844549 37.9053365,3.01390664 41.2484444,1.54858089" id="Path-17" stroke="#101816" mask="url(#mask-2)"></path>
                    <path d="M41.1505657,1.6032007 C45.2863778,10.3078508 49.4221899,19.0125008 53.558002,27.7171509" id="Path-18" stroke="#101816" mask="url(#mask-2)"></path>
                    <path d="M53.7463311,27.6389353 C59.5064772,17.8357036 64.6611705,10.1786919 74.0587835,3.6158315" id="Path-19" stroke="#101816" mask="url(#mask-2)"></path>
                    <path d="M74.0858749,3.69710578 C82.0250655,31.6890957 80.7348235,20.6416942 81.9353972,36.1281649" id="Path-20" stroke="#101816" mask="url(#mask-2)"></path>
                    <path d="M81.6588025,36.2181783 C87.6718596,25.7420651 94.9146102,23.0082082 105.773231,19.0194922" id="Path-21" stroke="#101816" mask="url(#mask-2)"></path>
                    <path d="M105.522853,19.3769242 C115.094847,43.6789063 113.983407,34.2094496 115.700491,49.7621436" id="Path-22" stroke="#101816" mask="url(#mask-2)"></path>
                    <path d="M115.873963,49.8792485 C123.313465,40.580007 119.19912,44.2215786 127.731706,38.4296252" id="Path-23" stroke="#101816" mask="url(#mask-2)"></path>
                    <path d="M11.5064279,14.8264385 C6.19036048,19.2074774 5.11035577,25.0693316 3.60010099,31.4850439" id="Path-24" stroke="#101816" mask="url(#mask-2)"></path>
                </g>
                <path d="M99.7294256,213.103986 C99.7115278,213.034185 99.6963147,212.965278 99.6784169,212.894582 C99.5182314,212.259209 99.3428327,211.606834 99.1450618,210.926717 C97.4913033,204.972112 89.6278962,193.13002 83.6213879,193.13002 C82.6987553,193.13002 81.8387651,193.404751 80.9913033,193.969427 C75.732029,197.476505 76.7933697,203.820387 79.0144891,213.099512 C79.5639522,215.394907 80.131313,217.768158 80.4731614,219.983908 C80.9161324,222.867247 80.8087455,226.08796 80.7058331,229.20039 C80.5447527,234.036381 80.378303,239.036137 82.4625041,241.191035 C83.3752929,242.133355 84.7963798,242.592434 86.8071998,242.592434 C87.3897738,242.592434 87.938342,242.548584 88.4681175,242.482363 C88.6291979,242.462675 88.7813293,242.432249 88.9379352,242.406297 C89.3066303,242.345444 89.6654816,242.272958 90.0082249,242.183469 C90.1621461,242.143199 90.3142776,242.102929 90.4619346,242.057289 C90.819891,241.947218 91.1635291,241.821933 91.4937439,241.683225 C91.5903921,241.642955 91.6924097,241.608054 91.7863733,241.565099 C92.2105516,241.371803 92.6132525,241.158819 92.9917914,240.925252 C93.0284819,240.901985 93.0615929,240.875138 93.0982834,240.851871 C93.4329727,240.638887 93.7497641,240.41069 94.0495526,240.171754 C94.1372519,240.101952 94.2213716,240.028571 94.3063863,239.95698 C94.5524813,239.748471 94.7878376,239.532802 95.0097706,239.310869 C95.0849414,239.235698 95.1619021,239.162317 95.2343882,239.086251 C95.4840628,238.823153 95.720314,238.553791 95.9404572,238.279954 C95.9655142,238.248633 95.9941507,238.217312 96.0192076,238.185991 C96.2653026,237.873674 96.4917101,237.555988 96.7020094,237.237406 C96.7512284,237.162236 96.7950781,237.08796 96.8425073,237.013684 C96.9919541,236.777432 97.1342418,236.542076 97.2657908,236.307615 C97.3284331,236.195753 97.3883908,236.084787 97.4474536,235.97382 C97.5503661,235.779629 97.6461194,235.589017 97.7382932,235.3993 C97.7955662,235.279385 97.8555239,235.158575 97.9083225,235.041344 C97.9843882,234.874894 98.0506102,234.715604 98.117727,234.555418 C98.2564351,234.219834 98.3835096,233.895884 98.4882118,233.597885 C98.4935812,233.581777 98.5007403,233.563879 98.5061097,233.547771 C98.5803856,233.333892 98.6466075,233.131647 98.7047755,232.942825 L98.7047755,232.942825 C98.9571347,232.12042 99.0716808,231.54411 99.0895786,231.446567 C99.1056866,231.351708 99.1298487,231.251481 99.1584852,231.159307 C100.827457,225.87587 101.498625,221.431842 100.138391,214.891084 C100.018475,214.312089 99.8806622,213.715197 99.7294256,213.103986" id="Fill-11" fill="#FDEACB"></path>
                <path d="M153.290441,97.4459486 C146.641401,97.4459486 137.117076,97.3904653 131.210796,96.9116987 C130.696233,96.8705337 130.241629,96.8705337 129.948104,96.8946957 C130.383021,97.6061341 131.450626,98.8518223 133.157184,100.273804 L133.586731,100.638025 C145.190783,110.531939 153.924024,112.608981 159.20746,112.609876 L159.210145,112.609876 C161.096575,112.609876 162.923048,112.347673 164.641238,111.833111 C172.791905,109.387374 177.79882,104.335714 179.766686,100.424146 C180.500496,98.9618939 180.649048,98.0025708 180.649048,97.5515457 C179.540278,97.4387895 176.656045,97.3824113 172.05362,97.3824113 C169.603409,97.3824113 166.818508,97.3958347 163.854629,97.4110478 C160.48447,97.4280508 156.884323,97.4459486 153.290441,97.4459486" id="Fill-13" fill="#D36E2A"></path>
                <path d="M8.74236902,195.073096 C7.0563944,197.144769 6.49529775,200.059429 7.16109665,203.283721 C8.8631793,211.506874 23.4803287,227.457411 33.3805076,229.833347 C34.1375854,230.01501 34.8239668,230.107184 35.4181744,230.107184 C36.9627563,230.107184 37.5363814,229.503132 37.8343801,229.047633 C39.041588,227.199683 38.3578913,223.183412 37.3994631,220.993614 C34.658412,214.727587 25.9717052,198.302758 21.5804751,194.924544 C19.3700944,193.223357 16.9914741,192.323991 14.6987634,192.323991 C12.3013505,192.323991 10.1849333,193.300317 8.74236902,195.073096" id="Fill-15" fill="#FDEACB"></path>
                <path d="M31.6638383,141.703677 C32.174821,144.427725 33.9825008,145.000456 35.408957,145.000456 C37.2846486,145.000456 39.4064351,143.996388 41.0888301,142.314888 C42.9645216,140.438301 43.8066141,137.963033 43.339481,135.690905 C43.0504312,134.279662 42.27993,133.198633 41.2794419,132.798617 C41.114782,132.73329 40.8901643,132.698389 40.6279613,132.698389 C38.8292304,132.698389 35.5440856,134.318142 33.3730801,136.933908 C32.5802066,137.890547 31.3031972,139.780556 31.6638383,141.703677" id="Fill-17" fill="#D36E2A"></path>
                <path d="M30.3839652,123.970786 C30.2282541,124.004792 30.17993,124.058485 30.1781403,124.058485 C30.1951432,124.053116 30.2935812,124.239253 30.6631712,124.489823 C31.3406036,124.946217 34.0995526,126.232175 41.5701025,124.236568 C41.3410104,122.50406 41.4278148,120.342898 42.1795233,117.775456 C37.8133501,120.810926 32.8896599,123.413269 30.3839652,123.970786" id="Fill-21" fill="#D36E2A"></path>
                <path d="M40.6279613,132.6983 C38.8292304,132.6983 35.5440856,134.318052 33.3730801,136.933819 C32.5802066,137.890457 31.3031972,139.780467 31.6638383,141.703588 C32.174821,144.428531 33.9816059,145.000366 35.408957,145.000366 C37.2846486,145.000366 39.4064351,143.996298 41.0888301,142.314798 C42.9645216,140.438212 43.8066141,137.962943 43.339481,135.690815 C43.0504312,134.279572 42.27993,133.198544 41.2794419,132.798527 C41.114782,132.7332 40.8901643,132.6983 40.6279613,132.6983 M35.408957,148.340099 L35.408957,148.340099 C31.7703303,148.340099 29.0767084,146.033965 28.3804832,142.319273 C27.9267735,139.899487 28.7867637,137.230028 30.8029531,134.801294 C33.4196144,131.647698 37.552221,129.357672 40.6279613,129.357672 C41.3206069,129.357672 41.9568744,129.472218 42.5188659,129.696835 C44.5654816,130.515661 46.0948503,132.505003 46.6112024,135.018752 C47.3056378,138.394281 46.1234868,142.004271 43.4504474,144.676416 C41.122836,147.004922 38.1911731,148.340099 35.408957,148.340099" id="Fill-23" fill="#000000"></path>
                <path d="M151.669077,126.60973 C149.802335,121.333453 147.508729,116.531468 144.850903,112.214514 C140.859689,110.269915 136.368231,107.399105 131.419484,103.179694 L131.019468,102.839636 C125.546315,98.2810609 126.301603,96.1977546 126.549487,95.5122681 C126.747258,94.9645949 127.098951,94.5359421 127.583981,94.2146762 C120.165335,89.4637 111.648658,86.8058737 102.346266,86.524878 C79.2276521,85.8250732 58.9664253,95.6617149 48.1355597,112.839147 C45.1752603,117.53643 44.1523999,121.805955 45.1797348,125.186853 C45.9278637,127.649593 47.6442646,129.169118 48.8872681,129.722161 C50.9911568,130.658217 64.3814107,126.011943 68.2715018,118.937829 C68.4925399,118.536918 68.8666043,118.244289 69.3086804,118.127953 C69.7525464,118.012512 70.2223641,118.081419 70.6107468,118.320355 C79.7448991,123.941165 90.0128783,121.371933 98.9188334,118.5226 C99.800301,118.242499 100.736357,118.72574 101.018248,119.604523 C101.168589,120.077026 101.093418,120.562952 100.859852,120.959388 C106.746445,120.804572 112.65183,121.702148 117.855622,123.756817 C118.713822,124.095086 119.134421,125.065148 118.796152,125.923349 C118.456988,126.781549 117.486032,127.203938 116.629621,126.862984 C103.824626,121.81043 86.4834282,124.285698 77.1488204,132.501692 C73.9477953,135.317914 72.5571347,138.039278 73.2345672,140.163749 C73.9290026,142.345493 76.7693866,144.061894 80.3024162,144.433274 C82.9575578,144.7089 86.9979906,143.814904 91.279149,142.86453 C97.8771803,141.399593 105.356679,139.73957 112.013773,141.118597 C122.803474,143.35135 129.960812,149.823202 140.795257,159.621363 L142.115221,160.814253 C142.799813,161.431728 142.852611,162.488594 142.235137,163.173186 C141.905817,163.538301 141.451212,163.723544 140.995713,163.723544 C140.617174,163.723544 140.243109,163.586625 139.932582,163.328002 C141.002872,167.875838 141.55144,172.544484 141.55144,177.269509 C141.55144,182.935063 140.764831,188.532607 139.228303,193.922535 C140.949178,194.896176 142.394427,196.064009 143.429816,197.405451 C143.994492,198.134787 143.859364,199.184494 143.130028,199.74738 C142.401586,200.312057 141.350089,200.177823 140.788098,199.447592 C137.902075,195.714107 130.55502,193.538627 123.296559,194.269753 C118.010438,194.805792 108.379621,197.338334 102.921681,208.181728 C103.129295,208.73835 103.302009,209.253807 103.427294,209.706622 C106.289156,219.514627 105.611723,225.464758 103.449666,232.360788 C103.236682,233.524146 102.825033,234.911227 102.207558,236.357371 C109.558192,236.378848 122.531427,234.76357 136.337805,225.258038 C162.476676,207.25999 160.176806,150.650081 151.669077,126.60973" id="Fill-25" fill="#D36E2A"></path>
                <path d="M179.766238,100.424235 C177.799268,104.335804 172.792353,109.387463 164.640791,111.8332 C162.923495,112.347763 161.096128,112.609966 159.209697,112.609966 L159.207908,112.609966 C153.924471,112.609071 145.190335,110.532029 133.586284,100.638114 L133.156736,100.273894 C131.451074,98.8519118 130.383469,97.6062236 129.948552,96.8947852 C130.242076,96.8706232 130.696681,96.8706232 131.210348,96.9117882 C137.117524,97.3905548 146.640953,97.4460381 153.289993,97.4460381 C156.883876,97.4460381 160.484022,97.4281403 163.855076,97.4111373 C166.818061,97.3959242 169.603856,97.3825008 172.053173,97.3825008 C176.656492,97.3825008 179.539831,97.4388789 180.649496,97.5516352 C180.649496,98.0026603 180.500049,98.9619834 179.766238,100.424235 M151.669346,126.60964 C160.17618,150.649992 162.476049,207.259901 136.337179,225.257948 C122.531695,234.76348 109.557566,236.378759 102.207826,236.357281 C102.825301,234.911137 103.236951,233.524056 103.449935,232.360698 C105.611992,225.464668 106.289424,219.514538 103.427563,209.706533 C103.302278,209.253718 103.129564,208.738261 102.921949,208.181638 C108.378994,197.338244 118.010706,194.805703 123.296827,194.269663 C130.555288,193.538537 137.902343,195.714912 140.788366,199.447502 C141.350358,200.177733 142.401855,200.311967 143.130296,199.747291 C143.859632,199.184404 143.994761,198.134697 143.430085,197.405361 C142.394696,196.064815 140.949447,194.896087 139.228571,193.922445 C140.765099,188.532517 141.551708,182.935869 141.551708,177.269419 C141.551708,172.544395 141.002245,167.875748 139.932851,163.327912 C140.243378,163.586536 140.617442,163.723454 140.995981,163.723454 C141.451481,163.723454 141.906085,163.538212 142.235405,163.173096 C142.85288,162.488505 142.799186,161.432533 142.11549,160.814164 L140.795526,159.621274 C129.96108,149.824007 122.802847,143.351261 112.013147,141.118508 C105.356948,139.739481 97.8765539,141.399504 91.2785226,142.86444 C86.998259,143.814815 82.9578262,144.709705 80.3017898,144.433184 C76.7696551,144.062699 73.9292711,142.346298 73.2339408,140.163659 C72.5565083,138.039188 73.9471689,135.318719 77.1490888,132.501603 C86.4836967,124.285609 103.824894,121.81034 116.628994,126.862895 C117.4863,127.203848 118.457257,126.781459 118.79642,125.923259 C119.134689,125.065059 118.71409,124.094997 117.85589,123.756728 C112.651204,121.702058 106.745818,120.805377 100.86012,120.959299 C101.093687,120.563757 101.168858,120.076936 101.018516,119.604434 C100.736625,118.725651 99.8005695,118.24241 98.918207,118.522511 C90.0131468,121.371843 79.7451676,123.941075 70.6101204,118.320265 C70.2226326,118.081329 69.7528148,118.012423 69.3089489,118.127864 C68.8659779,118.244199 68.4928083,118.537724 68.2717703,118.93774 C64.3807842,126.011853 50.9914253,130.658127 48.8875366,129.722071 C47.644533,129.169029 45.9272372,127.649504 45.1800033,125.186764 C44.1517735,121.80676 45.1755288,117.536341 48.1358282,112.839058 C58.9657989,95.6625203 79.2279206,85.8249837 102.345639,86.5247885 C111.648926,86.8066791 120.165604,89.4636105 127.58425,94.2145867 C127.099219,94.5358526 126.747527,94.9645054 126.548861,95.5130735 C126.300976,96.1976651 125.546583,98.2809714 131.018842,102.839546 L131.419753,103.179605 C136.3685,107.399016 140.859063,110.269826 144.851171,112.215319 C147.508998,116.531378 149.801708,121.333363 151.669346,126.60964 M99.1589326,231.158859 C99.1294012,231.251033 99.1052392,231.351261 99.0891311,231.447014 C99.0076961,231.901619 96.9897169,242.591987 86.8076473,242.591987 C84.7959323,242.591987 83.3748454,242.133802 82.4629515,241.190587 C80.3778555,239.03569 80.5443052,234.035934 80.7053856,229.200838 C80.8082981,226.087512 80.9165799,222.8668 80.472714,219.984356 C80.1317605,217.768606 79.5635047,215.39446 79.0149365,213.099064 C76.7929222,203.820835 75.7315815,197.476058 80.9917507,193.969875 C81.8383176,193.405199 82.6983078,193.129572 83.6218353,193.129572 C89.6283436,193.129572 97.4908558,204.972559 99.1446144,210.926269 C101.72906,219.78748 101.144696,224.873145 99.1589326,231.158859 M41.570013,124.23639 C34.0994631,126.232891 31.3405142,124.946933 30.6630817,124.489644 C30.2934917,124.239074 30.1950537,124.052937 30.1780508,124.059201 C30.1798405,124.059201 30.2281647,124.004613 30.3838757,123.970607 C32.8904653,123.41309 37.8132607,120.811642 42.1794338,117.775277 C41.4277253,120.343614 41.3418158,122.503881 41.570013,124.23639 M172.053173,94.0418728 C169.599382,94.0418728 166.807322,94.0552961 163.838074,94.0705093 C160.472389,94.0875122 156.878506,94.10541 153.289993,94.10541 C147.141198,94.10541 138.523397,94.0579808 132.695867,93.670493 C124.060169,87.1717947 113.808298,83.5295884 102.445867,83.1850553 C78.2193785,82.4422958 56.929027,92.7988692 45.4332574,110.872088 C41.011601,115.235576 32.5146111,120.075146 29.6599089,120.709624 C28.3390498,121.003148 27.3412463,121.889985 26.9904491,123.081085 C26.6360722,124.287398 27.0164009,125.606468 28.0070452,126.60964 C28.9135698,127.526009 30.8026847,128.669679 34.5800195,128.669679 C36.612317,128.669679 39.2003417,128.332306 42.4666938,127.456207 C43.6935893,130.238423 45.8082167,132.007623 47.529987,132.77365 C51.6455906,134.601017 65.0179466,129.299683 70.2879596,121.982159 C74.3668728,124.147795 78.6113407,124.974675 82.9068174,124.967515 C79.9286202,126.32596 77.2117312,127.995827 74.9413928,129.994118 C69.4852424,134.796103 69.2704686,138.726464 70.0517084,141.177571 C71.1595835,144.657802 75.0469899,147.239562 79.9518874,147.755914 C83.1457533,148.094183 87.2488285,147.1805 92.0015945,146.125423 C98.2729906,144.734762 105.380215,143.158859 111.337504,144.389335 C120.19603,146.222966 126.356459,151.145761 135.292841,159.15772 C137.229385,164.979881 138.21108,171.073194 138.21108,177.269419 C138.21108,182.449048 137.51396,187.566035 136.157306,192.503148 C132.308379,191.077587 127.640628,190.470851 122.961243,190.946933 C113.721494,191.882094 105.952945,196.735088 101.224341,204.387301 C97.752164,197.601342 91.0243736,188.676595 83.6218353,188.676595 C81.8168402,188.676595 80.1004393,189.20995 78.5209567,190.264131 C70.2834852,195.755182 72.6209404,205.520233 74.6827693,214.135348 C75.2358119,216.445062 75.7575334,218.627701 76.0707452,220.661788 C76.4510739,223.134372 76.3508461,226.142995 76.2541979,229.053181 C76.0626912,234.815384 75.8649203,240.774463 79.2610316,244.287805 C81.0329157,246.117857 83.5708266,247.045859 86.8076473,247.045859 C93.5014318,247.045859 97.8300195,243.558469 100.423414,239.661219 C101.014937,239.683591 101.64136,239.698804 102.325057,239.698804 C106.632167,239.698804 138.118905,237.273862 149.886723,216.701856 C161.654541,196.129851 161.654541,167.854763 161.654541,163.359712 C161.654541,156.567629 158.819525,136.803344 154.817572,125.495501 C153.403645,121.498918 151.742727,117.776171 149.886723,114.296835 C153.60768,115.545208 156.742483,115.949699 159.207908,115.949699 C161.421868,115.949699 163.571396,115.640962 165.600114,115.032436 C178.629727,111.123552 184.082297,101.49005 183.988334,97.4379841 C183.951643,95.8406036 183.153401,94.6942483 181.855809,94.3694029 C181.047722,94.1671575 179.125496,94.0418728 172.053173,94.0418728 Z" id="Fill-27" fill="#000000"></path>
                <path d="M46.4010589,119.319103 C48.1943366,117.244065 48.4291466,116.983247 51.1159867,115.904855 C53.8028267,114.826463 56.1269279,114.695802 58.7372227,114.367852 C61.3475174,114.039902 62.498857,114.149722 64.4898295,114.224604 C66.480802,114.299485 66.5914841,114.598413 68.2969032,114.727397 C70.0023222,114.856382 69.0032849,115.5079 71.8502496,114.781289 C74.6972144,114.054677 76.4954097,112.634949 76.4954097,112.634949 C76.4954097,112.634949 83.0334328,106.390426 88.9621267,105.061002 C94.8908206,103.731577 97.9576454,103.054197 106.395605,105.930258 C114.833565,108.806318 116.276217,110.779675 119.94831,113.453226 C123.620402,116.126778 123.570753,117.186873 124.563174,119.157574 C125.555595,121.128274 125.325513,121.91022 124.844138,123.175116 C124.362764,124.440012 123.040727,125.315235 122.10703,125.611523 C121.173334,125.907811 118.857661,126.101063 118.857661,125.074793 C118.857661,124.048523 116.114217,123.175116 116.114217,123.175116 C116.114217,123.175116 111.440771,121.818293 108.144677,121.37106 C104.848583,120.923826 100.78138,120.998771 100.78138,120.998771 C100.78138,120.998771 101.001931,120.685723 101.053751,120.431963 C101.105571,120.178203 101.081969,120.101293 101.053751,119.937727 C101.001134,119.63273 100.935153,119.342844 100.695991,119.065303 C100.45683,118.787761 100.208388,118.569743 99.6883652,118.507088 C99.1683428,118.444433 99.144906,118.525792 98.3392558,118.781352 C95.3445608,119.7313 91.5432405,120.604125 91.5432405,120.604125 C91.5432405,120.604125 86.1658043,122.741924 80.3919142,121.704459 C78.0774438,121.28859 75.7699129,120.785244 74.3878132,120.27444 C73.0057135,119.763635 71.8888476,118.877629 70.5233523,118.385031 C68.9479849,117.816723 68.9741888,118.357503 68.5203346,118.781352 C68.0664804,119.205202 68.1298394,119.655197 67.2655355,120.604125 C66.4012316,121.553053 63.5154121,124.596542 60.1793797,126.281745 C56.8433473,127.966948 52.4671474,130.782027 49.2418717,129.819943 C46.0165961,128.85786 44.7227906,124.734222 44.7655233,123.768942 C44.8082561,122.803663 44.6077813,121.39414 46.4010589,119.319103 Z" id="Path-5" fill="#FDEACB"></path>
                <path d="M66.7656687,110.092369 C64.1105272,112.084396 64.9105597,114.547136 67.8789131,114.917621 C70.8490563,115.289001 71.0799382,115.485877 73.8183046,113.432997 C76.786658,111.205613 77.1589326,107.493606 73.8183046,107.86588 C70.4776765,108.23726 68.2511878,108.979125 66.7656687,110.092369" id="Fill-29" fill="#000000"></path>
                <path d="M58.9715262,111.577709 C58.9715262,113.422974 57.4761634,114.918337 55.6308981,114.918337 C53.7874227,114.918337 52.291165,113.422974 52.291165,111.577709 C52.291165,109.732444 53.7874227,108.237081 55.6308981,108.237081 C57.4761634,108.237081 58.9715262,109.732444 58.9715262,111.577709" id="Fill-31" fill="#000000"></path>
                <path d="M94.2306785,105.640018 C92.3854133,105.640018 90.8909453,104.144655 90.8909453,102.29939 C90.8909453,100.454125 92.3854133,98.9587618 94.2306785,98.9587618 C96.0759437,98.9587618 97.5713065,100.454125 97.5713065,102.29939 C97.5713065,104.144655 96.0759437,105.640018 94.2306785,105.640018 Z" id="Fill-33" fill="#000000"></path>
                <path d="M14.6990319,192.32426 C12.3016189,192.32426 10.1852018,193.300586 8.74263749,195.073365 C7.05576798,197.144143 6.49467133,200.059697 7.16136512,203.28399 C8.86344777,211.507143 23.4805971,227.45768 33.3807761,229.833615 C34.1378539,230.015278 34.8233404,230.107452 35.4184429,230.107452 C36.9621298,230.107452 37.5366499,229.502506 37.8346486,229.047006 C39.0418565,227.199951 38.3572649,223.18368 37.3997315,220.992987 C34.6586804,214.727856 25.9719736,198.302131 21.5807436,194.923918 C19.3703628,193.223625 16.9908477,192.32426 14.6990319,192.32426 M35.4184429,233.44808 L35.4184429,233.44808 C34.5611373,233.44808 33.6134478,233.324585 32.602221,233.08207 C21.306012,230.37055 5.84587537,213.408786 3.89053856,203.959632 C3.01623007,199.734852 3.81894728,195.828653 6.15103319,192.965002 C8.21196713,190.435145 11.3270827,188.983632 14.6990319,188.983632 C17.7336072,188.983632 20.8182965,190.123723 23.6184103,192.277725 C29.1175155,196.50877 38.446754,215.051806 40.4593638,219.653336 C41.2969818,221.567507 42.9587943,227.312707 40.630288,230.875268 C39.8624715,232.049365 38.3348926,233.44808 35.4184429,233.44808" id="Fill-35" fill="#000000"></path>
            </g>
            <text id="WordCamp-Raleigh" transform="translate(312.681379, 194.810889) rotate(-30.000000) translate(-312.681379, -194.810889) " font-family="Biko-Bold, Biko" font-size="30" font-weight="bold" line-spacing="70" fill="#9CCFB3">
                <tspan x="180.051379" y="188.810889">WordCamp Raleigh</tspan>
            </text>
            <text id="WordCamp-Raleigh-201" font-family="Biko-Bold, Biko" font-size="30" font-weight="bold" fill="#000000">
                <tspan x="198.265" y="914">WordCamp Raleigh 2017</tspan>
                <tspan x="131.995" y="951">Color: Turf Green (Pantone 3425C)</tspan>
            </text>
        </g>
    </g>
</svg>