<?xml version="1.0" encoding="UTF-8"?>
<svg width="1000px" height="1120px" viewBox="0 0 1000 1120" version="1.1" xmlns="http://www.w3.org/2000/svg" xmlns:xlink="http://www.w3.org/1999/xlink">
    <!-- Generator: Sketch 42 (36781) - http://www.bohemiancoding.com/sketch -->
    <title>Wapuu Squirrel - V2</title>
    <desc>Created with Sketch.</desc>
    <defs>
        <path d="M1.86328125,137.386719 C8.8359375,148.460938 15.671875,148.605469 30.6132813,144.167969 C45.5546875,139.730469 86.6113281,128.191406 140.029297,128.191406 C193.447266,128.191406 220.453125,126.042969 259.519531,135.105469 C298.585938,144.167969 359.527344,168.402344 359.527344,168.402344 C359.527344,168.402344 444.320313,205.824219 463.8125,214.730469 C483.304688,223.636719 508.054688,227.753906 518.023438,227.753906 C527.992188,227.753906 536.981606,225.784388 553.331055,220.3125 C569.680503,214.840612 581.897009,186.435989 574.701172,168.402344 C567.505334,150.368698 556.07257,122.110426 450.314453,68.2597656 C344.556337,14.409105 316.530775,-5.89301192 194.685547,1.59179688 C72.8403183,9.07660567 12.0644531,100.914063 12.0644531,100.914063 C12.0644531,100.914063 -5.109375,126.3125 1.86328125,137.386719 Z" id="path-1"></path>
    </defs>
    <g id="Page-1" stroke="none" stroke-width="1" fill="none" fill-rule="evenodd">
        <g id="Wapuu-Squirrel---V2">
            <path d="M702.78125,932.78125 C702.78125,932.78125 708.429688,931.070312 729.847656,914.929688 C751.265625,898.789062 778.761719,872.371094 784.128906,863.796875 C789.496094,855.222656 806.353516,834.833984 808.923828,828.142578 C811.494141,821.451172 832.320313,782.570313 835.054688,772.162109 C837.789062,761.753906 854.453125,719.8125 857.486328,680.732422 C860.519531,641.652344 859.767578,642.792969 859.767578,629.791016 C859.767578,616.789062 857.490234,592.507812 854.810547,578.517578 C852.130859,564.527344 838.269531,517.685547 833.519531,510.902344 C828.769531,504.119141 815.289063,474.376953 810.28125,466.279297 C805.273438,458.181641 788.078808,433.083984 784.697266,427.611328 C781.315723,422.138672 774.078533,411.544053 761.416016,393.579102 C748.753498,375.61415 742.453022,367.592926 735.760742,358.182617 C729.068462,348.772309 726.600766,345.661553 722.600586,338.999023 C718.600406,332.336494 718.365162,334.650719 715.513672,324.459961 C712.662182,314.269203 710.820312,312.167969 712.34375,302.342773 C713.867187,292.517578 712.96582,280.698242 717.783203,273.989258 C722.600586,267.280273 727.155273,254.606445 735.980469,250.00293 C744.805664,245.399414 755.552734,239.951172 763.094727,238.890625 C770.636719,237.830078 795.62207,239.764648 799.605469,241.248047 C803.588867,242.731445 816.057108,246.550039 840.086914,256.586914 C864.11672,266.623789 869.799271,270.560147 887.882812,278.120117 C905.966354,285.680088 910.150623,286.918013 924.30957,291.796875 C938.468518,296.675737 939.014345,299.045507 952.786133,300.484375 C966.55792,301.923243 973.560547,301.301758 980.578125,297.675781 C987.595703,294.049805 996.130859,281.920898 996.130859,281.920898 C996.130859,281.920898 998.71875,258.478516 996.130859,252.890625 C993.542969,247.302734 987.527344,217.985352 975.498047,199.289062 C963.46875,180.592773 957.274362,165.90127 924.30957,133.539062 C891.344779,101.176855 859.36168,80.0507812 854.40918,77.7324219 C849.456679,75.4140625 772.199219,16.7480469 688.992187,6.12890625 C605.785156,-4.49023438 563.941406,7.56054687 556.863281,10.4316406 C552.776377,12.0894079 513.392221,20.6972383 476.224609,47.1191406 C439.056998,73.5410429 422.647544,97.3317045 409.365234,118.175781 C377.935313,167.499109 378.986357,194.967703 384.177734,246.5625 C389.369112,298.157297 438.65332,357.487305 445.650391,365.671875 C452.647461,373.856445 593.611328,472.646484 593.611328,472.646484 L690.326172,548.470703 C690.326172,548.470703 702.845176,555.46463 714.642578,580.431641 C726.43998,605.398651 728.263612,603.240208 735.760742,645.992187 C743.257872,688.744167 744.326172,694.029297 740.15332,725.905273 C735.980469,757.78125 718.148438,802.186523 718.148438,802.186523 L691.425781,881.849609 L682.642578,929.271484 L691.838867,935.576172 L699.082031,934.222656 L702.78125,932.78125 Z" id="Path-2" fill="#000000"></path>
            <path d="M816.530306,760.260819 C819.264681,749.852616 832.309603,698.805741 835.342806,659.725663 C838.376009,620.645584 836.868197,605.253006 831.954134,580.807694 C827.040072,556.362381 792.348666,488.708084 787.340853,480.610428 C782.333041,472.512772 738.906283,405.837967 735.979525,402.059647 C733.052767,398.281327 697.606594,355.824908 690.127963,343.180741 C682.649331,330.536573 683.158304,328.580662 681.950228,310.711991 C680.742153,292.84332 685.450228,273.992264 685.450228,273.992264 C685.450228,273.992264 698.165054,244.932227 712.342806,230.926834 C726.520559,216.921442 756.783192,207.627054 769.680697,208.758866 C784.350998,210.046248 804.635137,216.074939 806.754916,216.864334 C810.738314,218.347733 851.985384,236.262772 851.985384,236.262772 C851.985384,236.262772 912.396517,268.050858 920.729525,270.387772 C929.062533,272.724686 957.690463,286.169022 966.014681,273.992264 C974.3389,261.815506 968.602572,244.881913 966.014681,239.294022 C963.426791,233.706131 952.301791,206.90242 944.313509,196.794022 C936.325228,186.685624 909.872018,158.55862 894.600619,144.471756 C879.32922,130.384893 830.449736,92.2417127 827.040072,90.6455845 C822.087571,88.3272251 756.852572,41.2803501 673.645541,30.6612095 C653.77349,28.1250765 622.450464,24.3872866 589.752963,30.6612095 C553.279634,37.6596296 513.298048,53.4758931 484.251009,77.6143345 C460.065055,97.7131559 436.327178,122.531021 424.090853,146.817459 C411.854529,171.103898 409.94537,207.370384 409.592806,213.163163 C408.301107,234.386358 419.52173,262.473935 424.090853,273.992264 C432.802767,295.954178 448.270541,330.706131 477.661166,357.090897 C507.051791,383.475663 600.2764,442.298163 600.2764,442.298163 C600.2764,442.298163 653.137449,480.842235 692.427393,516.885819 C731.717336,552.929403 744.591079,585.446223 745.616244,587.745194 C748.756869,594.788163 758.401726,612.907835 763.093783,651.397538 C767.785839,689.887241 767.205068,696.865612 763.093783,731.116288 C758.982498,765.366964 750.79439,776.520475 745.616244,797.001053 C740.438098,817.481632 738.426791,823.776444 735.979525,838.358475 C733.532259,852.940506 732.852789,878.777467 767.049838,843.764725 C801.246886,808.751983 813.795931,770.669022 816.530306,760.260819 Z" id="Path-3" fill="#D36E2A"></path>
            <path d="M816.526592,760.2584 C819.260967,749.850197 832.305889,698.803322 835.339092,659.723244 C838.372295,620.643166 836.864483,605.250587 831.95042,580.805275 C827.036358,556.359962 792.344951,488.705666 787.337139,480.608009 C782.329326,472.510353 738.902568,405.835548 735.975811,402.057228 C733.049053,398.278908 697.60288,355.82249 690.124248,343.178322 C682.645616,330.534154 683.154589,328.578243 681.946514,310.709572 C680.738438,292.840901 685.446514,273.989845 685.446514,273.989845 C685.446514,273.989845 698.161339,244.929808 712.339092,230.924416 C726.516845,216.919023 756.779477,207.624635 769.676983,208.756447 C784.347284,210.043829 851.98167,236.260353 851.98167,236.260353 C851.98167,236.260353 908.392698,266.20946 916.335186,268.812111 C927.519756,272.47715 970.408305,290.416394 959.342998,268.812111 C948.277691,247.207827 901.798076,204.625587 901.798076,204.625587 C901.798076,204.625587 875.49422,175.502729 806.751201,152.625587 C738.008183,129.748446 697.223168,126.831872 665.707887,140.617775 C652.15557,146.54604 633.488376,158.408741 622.632061,178.344337 C608.242521,204.768041 603.559576,240.144154 603.358623,243.4459 C602.066924,264.669095 597.250973,292.309277 622.632061,348.3209 C648.013149,404.332523 690.124248,434.922462 690.124248,434.922462 C690.124248,434.922462 741.199321,495.133146 763.090068,531.438087 C784.980816,567.743029 792.2529,574.545565 800.401592,617.813087 C808.550284,661.08061 802.900615,692.762306 798.38499,718.845314 C793.869365,744.928322 792.297735,748.636042 786.0471,779.357033 C779.796464,810.078024 771.568584,838.976173 771.568584,838.976173 C771.568584,838.976173 798.642692,806.877709 806.751201,789.107033 C812.82861,775.787734 815.812408,762.976888 816.526592,760.2584 Z" id="Path-4" fill="#FDEACB"></path>
            <path d="M768.9328,406.6884 C757.9728,406.6884 745.5168,406.7524 732.2728,406.8204 C717.3208,406.8924 701.3608,406.9724 685.4288,406.9724 C659.8208,406.9724 623.9568,406.7884 598.4328,405.3244 C557.5608,375.6084 510.4728,359.7484 458.3648,358.1724 C345.4568,354.7124 245.4888,403.5284 191.3528,487.4404 C173.0568,504.8364 138.6368,524.1804 129.3328,526.2484 C113.7248,529.7164 103.6208,543.3844 105.3088,558.7404 C106.5248,569.8084 114.3928,582.2444 131.9488,588.0244 C129.9208,590.0164 127.9928,592.1084 126.1928,594.2724 C114.2928,608.6084 109.3168,624.9084 112.1808,640.1724 C112.7568,643.2364 113.5568,646.1604 114.5808,648.9404 C88.8368,692.7604 75.2968,742.4964 75.2968,793.6364 C75.2968,806.5484 76.1648,819.4044 77.8928,832.1284 C73.8448,831.4244 69.7688,831.0644 65.7008,831.0644 C46.1208,831.0644 27.9728,839.5564 15.9168,854.3604 C2.6048,870.7164 -2.0632,892.5924 2.7728,915.9644 C12.6248,963.5724 84.7408,1043.8244 142.2408,1057.6284 C147.9048,1058.9804 153.3128,1059.6724 158.3128,1059.6724 C173.6968,1059.6724 186.4048,1053.1884 194.1048,1041.4124 C196.5488,1037.6684 198.3128,1033.7004 199.5408,1029.6364 C238.7808,1056.7044 284.1448,1073.4604 332.2048,1078.3324 C342.6168,1112.3044 370.5728,1117.9684 388.0128,1117.9684 C414.3128,1117.9684 437.0288,1107.2724 453.2328,1087.5644 C454.6968,1087.5884 456.1648,1087.6044 457.6368,1087.6044 C468.7528,1087.6044 482.5688,1086.8404 498.3768,1084.4004 C509.485544,1082.68574 562.410775,1073.59632 602.025391,1054.39062 C628.794922,1041.4124 663.313028,1023.90984 693.376953,965.548828 C757.882812,839.650391 747.1128,673.1804 706.0848,557.2324 C703.2368,549.1844 700.1608,541.3044 696.8608,533.6084 C701.8568,534.1844 706.7888,534.4764 711.6488,534.4764 C722.9888,534.4764 734.0408,532.8844 744.4928,529.7484 C808.8488,510.4404 837.9288,462.6644 837.3208,436.4564 C837.0008,422.6204 828.8208,411.6844 816.4848,408.6004 C811.3088,407.3084 802.8728,406.6884 768.9328,406.6884 Z" id="Fill-1" fill="#000000"></path>
            <path d="M144.1148,943.0132 C137.6588,931.1452 130.6428,918.9172 123.7588,907.9292 C129.6628,920.1772 136.4628,931.9052 144.1148,943.0132" id="Fill-3" fill="#005683"></path>
            <path d="M497.6568,646.6668 C471.0328,641.1668 439.2608,648.2108 411.2328,654.4268 C389.9888,659.1428 371.6448,663.2268 357.3688,661.7108 C335.4448,659.4068 318.0688,647.8668 313.1168,632.3108 C309.6288,621.3548 310.5848,603.7868 334.9728,582.3228 C345.1248,573.3908 357.2648,565.9268 370.5808,559.8548 C351.3808,559.8868 332.4048,556.1908 314.1728,546.5108 C290.6208,579.2188 230.8488,602.9148 212.4528,594.7468 C208.3688,592.9308 203.8088,589.8148 199.5928,585.4708 C203.2768,590.9788 206.8168,597.3468 208.3448,604.7828 C211.4448,619.8668 206.1648,636.0068 194.2168,647.9508 C183.8128,658.3588 170.7088,664.3268 158.2688,664.3268 C149.5728,664.3268 142.1448,661.2988 136.5808,656.0148 C111.9768,696.0828 97.6928,743.1628 97.6928,793.6348 C97.6928,817.1388 100.8328,839.8908 106.6008,861.5748 C131.2968,881.9308 171.9728,962.7988 180.8448,983.0828 C181.3288,984.1908 181.8768,985.5948 182.4368,987.2148 C224.7688,1026.3588 279.9128,1051.8428 340.9128,1056.5508 C340.1488,1046.4628 340.4888,1035.7108 340.8408,1025.0988 C341.2728,1012.0908 341.7208,998.6428 340.0248,987.5908 C338.6248,978.4948 336.2928,968.7428 333.8168,958.4188 C324.6008,919.9108 314.1528,876.2628 350.9728,851.7148 C358.0368,847.0068 365.7048,844.6228 373.7728,844.6228 C406.8648,844.6228 436.9368,884.5148 452.4528,914.8468 C473.5888,880.6428 508.3128,858.9508 549.6128,854.7708 C570.5288,852.6428 591.3968,855.3548 608.5968,861.7268 C614.6648,839.6588 617.7768,816.7868 617.7768,793.6348 C617.7768,765.9388 613.3888,738.7028 604.7328,712.6788 C564.7928,676.8668 537.2528,654.8628 497.6568,646.6668 Z" id="Fill-5" fill="#D6B68F"></path>
            <path d="M261.2492,599.5088 C130.0452,610.3368 44.8492,808.0408 160.8892,911.5088 C278.4932,1016.3648 423.7892,880.8848 418.7692,755.1728 C414.8772,657.7168 334.1772,596.0048 261.2492,599.5088 M140.7492,690.3328 C180.6692,628.8848 257.0212,578.9008 340.8252,640.2768 C340.2612,640.2528 287.1012,642.6928 325.7412,699.8488 C346.6212,730.7368 347.9532,755.5128 331.4292,805.9048 C325.4692,830.7488 323.6692,838.2488 318.3412,863.8288 C292.8452,802.8968 272.0372,751.0128 255.6052,684.6688 C270.0492,682.5488 286.4212,680.1488 278.0132,670.8528 C276.9532,669.6808 200.8412,677.2328 200.1172,677.3568 C194.2732,678.3528 193.2492,685.2288 193.2412,685.2968 C192.6332,690.7248 193.6172,690.6688 210.1052,689.6768 C214.4492,713.0968 216.4332,723.7888 227.1852,757.9768 C219.4212,790.2448 211.3892,823.6048 210.2892,875.2728 C175.6092,806.2488 161.7292,758.3088 159.0812,698.3768 C164.0052,695.3808 170.5812,696.5568 174.9292,692.1008 C177.8972,689.0648 179.3412,682.2048 175.6412,681.4088 C162.5292,678.5808 152.5172,687.8728 140.7492,690.3328 M323.0292,905.5648 C337.0532,845.0968 360.3772,787.2928 374.1012,726.7408 C376.7492,715.0368 379.0412,696.8208 374.9172,676.5088 C415.7892,740.3648 411.0972,839.5408 323.0292,905.5648 M203.3092,923.4768 C114.8692,883.2848 98.6332,788.0088 128.3132,714.6608 C129.4372,787.2448 149.7652,843.8368 203.3092,923.4768 M255.1492,932.0088 C243.8492,932.7408 234.6532,932.0928 223.4172,929.7568 C220.0292,895.9848 217.8412,853.7888 234.8612,780.2368 C265.7732,860.3008 299.8212,919.0008 300.0612,919.3288 C294.2732,922.0888 276.6652,930.4928 255.1492,932.0088" id="Fill-9" fill="#101816"></path>
            <g id="Acorn-Top-Shell" transform="translate(77.000000, 543.000000)">
                <mask id="mask-2" fill="white">
                    <use xlink:href="#path-1"></use>
                </mask>
                <use id="Path-6" fill="#101816" xlink:href="#path-1"></use>
                <path d="M9.92578125,135.105469 C16.8984375,146.179688 24.5664062,139.542969 39.5078125,135.105469 C54.4492188,130.667969 92.25,119.638672 145.667969,119.638672 C199.085938,119.638672 228.464844,118.693359 267.53125,127.755859 C306.597656,136.818359 369.722656,161.964844 369.722656,161.964844 C369.722656,161.964844 450.103516,199.753906 469.595703,208.660156 C489.087891,217.566406 511.931641,220.3125 521.900391,220.3125 C531.869141,220.3125 544.431641,219.582031 554.726563,212.921875 C565.021484,206.261719 571.615234,179.599609 565.021484,165.505859 C558.427734,151.412109 516.287109,108.451172 419.806641,61.8417969 C323.326172,15.2324219 316.942885,1.24175371 195.097656,8.7265625 C73.2524276,16.2113713 22.5390625,100.554687 22.5390625,100.554687 C22.5390625,100.554687 2.953125,124.03125 9.92578125,135.105469 Z" id="Path-7" fill="#83413B" mask="url(#mask-2)"></path>
                <path d="M114.724609,26.4941406 C91.7968358,84.7796403 100.23583,55.8266231 91.7910156,125.537109" id="Path-8" stroke="#101816" mask="url(#mask-2)"></path>
                <path d="M51,65 C49.4897216,77.0195046 43.9539721,86.4463862 42.4436937,98.4658908 C40.9334153,110.485395 40.2036856,128.297458 39,137.876953" id="Path-9" stroke="#101816" mask="url(#mask-2)"></path>
                <path d="M185.933594,5 C163.00582,63.2854997 172.64794,53.2983028 164.203125,123.008789" id="Path-10" stroke="#101816" mask="url(#mask-2)"></path>
                <path d="M255.427734,5.59570312 C245.591115,28.2893643 245.239133,33.4250952 243.698242,40.5791016 C242.157352,47.7331079 239.836438,93.4537954 239.78125,125.30957" id="Path-11" stroke="#101816" mask="url(#mask-2)"></path>
                <path d="M330.404297,17.5117188 C317.483486,38.2095112 319.012695,33.8291016 310.691406,62.7617187 C302.370117,91.6943359 302.370117,142.333984 302.370117,142.333984" id="Path-12" stroke="#101816" mask="url(#mask-2)"></path>
                <path d="M401.234375,48.1816406 C367.970247,102.514682 371.458984,103.303711 369.091797,125.129883 C366.724609,146.956055 367.29025,152.175111 365.605469,164.305664" id="Path-13" stroke="#101816" mask="url(#mask-2)"></path>
                <path d="M472.228516,87.5136719 C466.348024,100.156219 448.213047,132.886829 439.121094,198.820312" id="Path-14" stroke="#101816" mask="url(#mask-2)"></path>
                <path d="M538.359375,131.09375 C534.68081,146.085289 528.108253,154.902992 524.429688,169.894531 C520.757993,184.858071 519.980289,205.995445 516.308594,220.958984" id="Path-15" stroke="#101816" mask="url(#mask-2)"></path>
                <path d="M51.6582031,66.0136719 C74.5392517,111.009211 60.9425005,92.4598419 89.7050781,123.572266" id="Path-16" stroke="#101816" mask="url(#mask-2)"></path>
                <path d="M91.8945312,124.882812 C105.163932,109.441062 169.429962,13.4716147 184.373047,6.921875" id="Path-17" stroke="#101816" mask="url(#mask-2)"></path>
                <path d="M183.935547,7.16601562 L239.394531,123.890625" id="Path-18" stroke="#101816" mask="url(#mask-2)"></path>
                <path d="M240.236328,123.541016 C265.983134,79.7223524 289.023675,45.4969019 331.029297,16.1621094" id="Path-19" stroke="#101816" mask="url(#mask-2)"></path>
                <path d="M331.150391,16.5253906 C366.637129,141.644496 360.869982,92.2646201 366.236328,161.486328" id="Path-20" stroke="#101816" mask="url(#mask-2)"></path>
                <path d="M365,161.888672 C391.877272,115.06235 424.25105,102.842507 472.787109,85.0136719" id="Path-21" stroke="#101816" mask="url(#mask-2)"></path>
                <path d="M471.667969,86.6113281 C514.453039,195.23677 509.485106,152.91002 517.160156,222.427734" id="Path-22" stroke="#101816" mask="url(#mask-2)"></path>
                <path d="M517.935547,222.951172 C551.18877,181.385253 532.798394,197.662416 570.9375,171.773438" id="Path-23" stroke="#101816" mask="url(#mask-2)"></path>
                <path d="M51.4316406,66.2714844 C27.6697858,85.8539315 22.8423611,112.055354 16.0917969,140.732422" id="Path-24" stroke="#101816" mask="url(#mask-2)"></path>
            </g>
            <path d="M445.7724,953.8088 C445.6924,953.4968 445.6244,953.1888 445.5444,952.8728 C444.8284,950.0328 444.0444,947.1168 443.1604,944.0768 C435.7684,917.4608 400.6204,864.5288 373.7724,864.5288 C369.6484,864.5288 365.8044,865.7568 362.0164,868.2808 C338.5084,883.9568 343.2524,912.3128 353.1804,953.7888 C355.6364,964.0488 358.1724,974.6568 359.7004,984.5608 C361.6804,997.4488 361.2004,1011.8448 360.7404,1025.7568 C360.0204,1047.3728 359.2764,1069.7208 368.5924,1079.3528 C372.6724,1083.5648 379.0244,1085.6168 388.0124,1085.6168 C390.6164,1085.6168 393.0684,1085.4208 395.4364,1085.1248 C396.1564,1085.0368 396.8364,1084.9008 397.5364,1084.7848 C399.1844,1084.5128 400.7884,1084.1888 402.3204,1083.7888 C403.0084,1083.6088 403.6884,1083.4288 404.3484,1083.2248 C405.9484,1082.7328 407.4844,1082.1728 408.9604,1081.5528 C409.3924,1081.3728 409.8484,1081.2168 410.2684,1081.0248 C412.1644,1080.1608 413.9644,1079.2088 415.6564,1078.1648 C415.8204,1078.0608 415.9684,1077.9408 416.1324,1077.8368 C417.6284,1076.8848 419.0444,1075.8648 420.3844,1074.7968 C420.7764,1074.4848 421.1524,1074.1568 421.5324,1073.8368 C422.6324,1072.9048 423.6844,1071.9408 424.6764,1070.9488 C425.0124,1070.6128 425.3564,1070.2848 425.6804,1069.9448 C426.7964,1068.7688 427.8524,1067.5648 428.8364,1066.3408 C428.9484,1066.2008 429.0764,1066.0608 429.1884,1065.9208 C430.2884,1064.5248 431.3004,1063.1048 432.2404,1061.6808 C432.4604,1061.3448 432.6564,1061.0128 432.8684,1060.6808 C433.5364,1059.6248 434.1724,1058.5728 434.7604,1057.5248 C435.0404,1057.0248 435.3084,1056.5288 435.5724,1056.0328 C436.0324,1055.1648 436.4604,1054.3128 436.8724,1053.4648 C437.1284,1052.9288 437.3964,1052.3888 437.6324,1051.8648 C437.9724,1051.1208 438.2684,1050.4088 438.5684,1049.6928 C439.1884,1048.1928 439.7564,1046.7448 440.2244,1045.4128 C440.2484,1045.3408 440.2804,1045.2608 440.3044,1045.1888 C440.6364,1044.2328 440.9324,1043.3288 441.1924,1042.4848 L441.1924,1042.4848 C442.3204,1038.8088 442.8324,1036.2328 442.9124,1035.7968 C442.9844,1035.3728 443.0924,1034.9248 443.2204,1034.5128 C450.6804,1010.8968 453.6804,991.0328 447.6004,961.7968 C447.0644,959.2088 446.4484,956.5408 445.7724,953.8088" id="Fill-11" fill="#FDEACB"></path>
            <path d="M685.1804,436.8384 C655.4604,436.8384 612.8884,436.5904 586.4884,434.4504 C584.1884,434.2664 582.1564,434.2664 580.8444,434.3744 C582.7884,437.5544 587.5604,443.1224 595.1884,449.4784 L597.1084,451.1064 C648.9764,495.3304 688.0124,504.6144 711.6284,504.6184 L711.6404,504.6184 C720.0724,504.6184 728.2364,503.4464 735.9164,501.1464 C772.3484,490.2144 794.7284,467.6344 803.5244,450.1504 C806.8044,443.6144 807.4684,439.3264 807.4684,437.3104 C802.5124,436.8064 789.6204,436.5544 769.0484,436.5544 C758.0964,436.5544 745.6484,436.6144 732.4004,436.6824 C717.3364,436.7584 701.2444,436.8384 685.1804,436.8384" id="Fill-13" fill="#D36E2A"></path>
            <path d="M39.0768,873.214 C31.5408,882.474 29.0328,895.502 32.0088,909.914 C39.6168,946.67 104.9528,1017.966 149.2048,1028.586 C152.5888,1029.398 155.6568,1029.81 158.3128,1029.81 C165.2168,1029.81 167.7808,1027.11 169.1128,1025.074 C174.5088,1016.814 171.4528,998.862 167.1688,989.074 C154.9168,961.066 116.0888,887.65 96.4608,872.55 C86.5808,864.946 75.9488,860.926 65.7008,860.926 C54.9848,860.926 45.5248,865.29 39.0768,873.214" id="Fill-15" fill="#FDEACB"></path>
            <path d="M141.5316,634.6624 C143.8156,646.8384 151.8956,649.3984 158.2716,649.3984 C166.6556,649.3984 176.1396,644.9104 183.6596,637.3944 C192.0436,629.0064 195.8076,617.9424 193.7196,607.7864 C192.4276,601.4784 188.9836,596.6464 184.5116,594.8584 C183.7756,594.5664 182.7716,594.4104 181.5996,594.4104 C173.5596,594.4104 158.8756,601.6504 149.1716,613.3424 C145.6276,617.6184 139.9196,626.0664 141.5316,634.6624" id="Fill-17" fill="#D36E2A"></path>
            <path d="M135.8108,555.3996 C135.1148,555.5516 134.8988,555.7916 134.8908,555.7916 C134.9668,555.7676 135.4068,556.5996 137.0588,557.7196 C140.0868,559.7596 152.4188,565.5076 185.8108,556.5876 C184.7868,548.8436 185.1748,539.1836 188.5348,527.7076 C169.0188,541.2756 147.0108,552.9076 135.8108,555.3996" id="Fill-21" fill="#D36E2A"></path>
            <path d="M181.5996,594.41 C173.5596,594.41 158.8756,601.65 149.1716,613.342 C145.6276,617.618 139.9196,626.066 141.5316,634.662 C143.8156,646.842 151.8916,649.398 158.2716,649.398 C166.6556,649.398 176.1396,644.91 183.6596,637.394 C192.0436,629.006 195.8076,617.942 193.7196,607.786 C192.4276,601.478 188.9836,596.646 184.5116,594.858 C183.7756,594.566 182.7716,594.41 181.5996,594.41 M158.2716,664.326 L158.2716,664.326 C142.0076,664.326 129.9676,654.018 126.8556,637.414 C124.8276,626.598 128.6716,614.666 137.6836,603.81 C149.3796,589.714 167.8516,579.478 181.5996,579.478 C184.6956,579.478 187.5396,579.99 190.0516,580.994 C199.1996,584.654 206.0356,593.546 208.3436,604.782 C211.4476,619.87 206.1636,636.006 194.2156,647.95 C183.8116,658.358 170.7076,664.326 158.2716,664.326" id="Fill-23" fill="#000000"></path>
            <path d="M677.9332,567.1952 C669.5892,543.6112 659.3372,522.1472 647.4572,502.8512 C629.6172,494.1592 609.5412,481.3272 587.4212,462.4672 L585.6332,460.9472 C561.1692,440.5712 564.5452,431.2592 565.6532,428.1952 C566.5372,425.7472 568.1092,423.8312 570.2772,422.3952 C537.1172,401.1592 499.0492,389.2792 457.4692,388.0232 C354.1332,384.8952 263.5692,428.8632 215.1572,505.6432 C201.9252,526.6392 197.3532,545.7232 201.9452,560.8352 C205.2892,571.8432 212.9612,578.6352 218.5172,581.1072 C227.9212,585.2912 287.7732,564.5232 305.1612,532.9032 C306.1492,531.1112 307.8212,529.8032 309.7972,529.2832 C311.7812,528.7672 313.8812,529.0752 315.6172,530.1432 C356.4452,555.2672 402.3412,543.7832 442.1492,531.0472 C446.0892,529.7952 450.2732,531.9552 451.5332,535.8832 C452.2052,537.9952 451.8692,540.1672 450.8252,541.9392 C477.1372,541.2472 503.5332,545.2592 526.7932,554.4432 C530.6292,555.9552 532.5092,560.2912 530.9972,564.1272 C529.4812,567.9632 525.1412,569.8512 521.3132,568.3272 C464.0772,545.7432 386.5652,556.8072 344.8412,593.5312 C330.5332,606.1192 324.3172,618.2832 327.3452,627.7792 C330.4492,637.5312 343.1452,645.2032 358.9372,646.8632 C370.8052,648.0952 388.8652,644.0992 408.0012,639.8512 C437.4932,633.3032 470.9252,625.8832 500.6812,632.0472 C548.9092,642.0272 580.9012,670.9552 629.3292,714.7512 L635.2292,720.0832 C638.2892,722.8432 638.5252,727.5672 635.7652,730.6272 C634.2932,732.2592 632.2612,733.0872 630.2252,733.0872 C628.5332,733.0872 626.8612,732.4752 625.4732,731.3192 C630.2572,751.6472 632.7092,772.5152 632.7092,793.6352 C632.7092,818.9592 629.1932,843.9792 622.3252,868.0712 C630.0172,872.4232 636.4772,877.6432 641.1052,883.6392 C643.6292,886.8992 643.0252,891.5912 639.7652,894.1072 C636.5092,896.6312 631.8092,896.0312 629.2972,892.7672 C616.3972,876.0792 583.5572,866.3552 551.1132,869.6232 C527.4852,872.0192 484.4372,883.3392 460.0412,931.8072 C460.9692,934.2952 461.7412,936.5992 462.3012,938.6232 C475.0932,982.4632 472.0652,1009.0592 462.4012,1039.8832 C461.4492,1045.0832 459.6092,1051.2832 456.8492,1057.7472 C489.7052,1057.8432 547.6932,1050.6232 609.4052,1008.1352 C726.2412,927.6872 715.9612,674.6512 677.9332,567.1952" id="Fill-25" fill="#D36E2A"></path>
            <path d="M803.5224,450.1508 C794.7304,467.6348 772.3504,490.2148 735.9144,501.1468 C728.2384,503.4468 720.0704,504.6188 711.6384,504.6188 L711.6304,504.6188 C688.0144,504.6148 648.9744,495.3308 597.1064,451.1068 L595.1864,449.4788 C587.5624,443.1228 582.7904,437.5548 580.8464,434.3748 C582.1584,434.2668 584.1904,434.2668 586.4864,434.4508 C612.8904,436.5908 655.4584,436.8388 685.1784,436.8388 C701.2424,436.8388 717.3344,436.7588 732.4024,436.6828 C745.6464,436.6148 758.0984,436.5548 769.0464,436.5548 C789.6224,436.5548 802.5104,436.8068 807.4704,437.3108 C807.4704,439.3268 806.8024,443.6148 803.5224,450.1508 M677.9344,567.1948 C715.9584,674.6508 726.2384,927.6868 609.4024,1008.1348 C547.6944,1050.6228 489.7024,1057.8428 456.8504,1057.7468 C459.6104,1051.2828 461.4504,1045.0828 462.4024,1039.8828 C472.0664,1009.0588 475.0944,982.4628 462.3024,938.6228 C461.7424,936.5988 460.9704,934.2948 460.0424,931.8068 C484.4344,883.3388 527.4864,872.0188 551.1144,869.6228 C583.5584,866.3548 616.3984,876.0828 629.2984,892.7668 C631.8104,896.0308 636.5104,896.6308 639.7664,894.1068 C643.0264,891.5908 643.6304,886.8988 641.1064,883.6388 C636.4784,877.6468 630.0184,872.4228 622.3264,868.0708 C629.1944,843.9788 632.7104,818.9628 632.7104,793.6348 C632.7104,772.5148 630.2544,751.6468 625.4744,731.3188 C626.8624,732.4748 628.5344,733.0868 630.2264,733.0868 C632.2624,733.0868 634.2944,732.2588 635.7664,730.6268 C638.5264,727.5668 638.2864,722.8468 635.2304,720.0828 L629.3304,714.7508 C580.9024,670.9588 548.9064,642.0268 500.6784,632.0468 C470.9264,625.8828 437.4904,633.3028 407.9984,639.8508 C388.8664,644.0988 370.8064,648.0988 358.9344,646.8628 C343.1464,645.2068 330.4504,637.5348 327.3424,627.7788 C324.3144,618.2828 330.5304,606.1228 344.8424,593.5308 C386.5664,556.8068 464.0784,545.7428 521.3104,568.3268 C525.1424,569.8508 529.4824,567.9628 530.9984,564.1268 C532.5104,560.2908 530.6304,555.9548 526.7944,554.4428 C503.5304,545.2588 477.1344,541.2508 450.8264,541.9388 C451.8704,540.1708 452.2064,537.9948 451.5344,535.8828 C450.2744,531.9548 446.0904,529.7948 442.1464,531.0468 C402.3424,543.7828 356.4464,555.2668 315.6144,530.1428 C313.8824,529.0748 311.7824,528.7668 309.7984,529.2828 C307.8184,529.8028 306.1504,531.1148 305.1624,532.9028 C287.7704,564.5228 227.9224,585.2908 218.5184,581.1068 C212.9624,578.6348 205.2864,571.8428 201.9464,560.8348 C197.3504,545.7268 201.9264,526.6388 215.1584,505.6428 C263.5664,428.8668 354.1344,384.8948 457.4664,388.0228 C499.0504,389.2828 537.1184,401.1588 570.2784,422.3948 C568.1104,423.8308 566.5384,425.7468 565.6504,428.1988 C564.5424,431.2588 561.1704,440.5708 585.6304,460.9468 L587.4224,462.4668 C609.5424,481.3268 629.6144,494.1588 647.4584,502.8548 C659.3384,522.1468 669.5864,543.6108 677.9344,567.1948 M443.2224,1034.5108 C443.0904,1034.9228 442.9824,1035.3708 442.9104,1035.7988 C442.5464,1037.8308 433.5264,1085.6148 388.0144,1085.6148 C379.0224,1085.6148 372.6704,1083.5668 368.5944,1079.3508 C359.2744,1069.7188 360.0184,1047.3708 360.7384,1025.7588 C361.1984,1011.8428 361.6824,997.4468 359.6984,984.5628 C358.1744,974.6588 355.6344,964.0468 353.1824,953.7868 C343.2504,912.3148 338.5064,883.9548 362.0184,868.2828 C365.8024,865.7588 369.6464,864.5268 373.7744,864.5268 C400.6224,864.5268 435.7664,917.4628 443.1584,944.0748 C454.7104,983.6828 452.0984,1006.4148 443.2224,1034.5108 M185.8104,556.5868 C152.4184,565.5108 140.0864,559.7628 137.0584,557.7188 C135.4064,556.5988 134.9664,555.7668 134.8904,555.7948 C134.8984,555.7948 135.1144,555.5508 135.8104,555.3988 C147.0144,552.9068 169.0184,541.2788 188.5344,527.7068 C185.1744,539.1868 184.7904,548.8428 185.8104,556.5868 M769.0464,421.6228 C758.0784,421.6228 745.5984,421.6828 732.3264,421.7508 C717.2824,421.8268 701.2184,421.9068 685.1784,421.9068 C657.6944,421.9068 619.1744,421.6948 593.1264,419.9628 C554.5264,390.9148 508.7024,374.6348 457.9144,373.0948 C349.6264,369.7748 254.4624,416.0668 203.0784,496.8508 C183.3144,516.3548 145.3344,537.9868 132.5744,540.8228 C126.6704,542.1348 122.2104,546.0988 120.6424,551.4228 C119.0584,556.8148 120.7584,562.7108 125.1864,567.1948 C129.2384,571.2908 137.6824,576.4028 154.5664,576.4028 C163.6504,576.4028 175.2184,574.8948 189.8184,570.9788 C195.3024,583.4148 204.7544,591.3228 212.4504,594.7468 C230.8464,602.9148 290.6184,579.2188 314.1744,546.5108 C332.4064,556.1908 351.3784,559.8868 370.5784,559.8548 C357.2664,565.9268 345.1224,573.3908 334.9744,582.3228 C310.5864,603.7868 309.6264,621.3548 313.1184,632.3108 C318.0704,647.8668 335.4464,659.4068 357.3704,661.7148 C371.6464,663.2268 389.9864,659.1428 411.2304,654.4268 C439.2624,648.2108 471.0304,641.1668 497.6584,646.6668 C537.2544,654.8628 564.7904,676.8668 604.7344,712.6788 C613.3904,738.7028 617.7784,765.9388 617.7784,793.6348 C617.7784,816.7868 614.6624,839.6588 608.5984,861.7268 C591.3944,855.3548 570.5304,852.6428 549.6144,854.7708 C508.3144,858.9508 473.5904,880.6428 452.4544,914.8468 C436.9344,884.5148 406.8624,844.6228 373.7744,844.6228 C365.7064,844.6228 358.0344,847.0068 350.9744,851.7188 C314.1544,876.2628 324.6024,919.9108 333.8184,958.4188 C336.2904,968.7428 338.6224,978.4988 340.0224,987.5908 C341.7224,998.6428 341.2744,1012.0908 340.8424,1025.0988 C339.9864,1050.8548 339.1024,1077.4908 354.2824,1093.1948 C362.2024,1101.3748 373.5464,1105.5228 388.0144,1105.5228 C417.9344,1105.5228 437.2824,1089.9348 448.8744,1072.5148 C451.5184,1072.6148 454.3184,1072.6828 457.3744,1072.6828 C476.6264,1072.6828 617.366394,1061.84375 669.9664,969.890625 C722.566406,877.9375 722.566406,751.553 722.566406,731.460938 C722.566406,701.101562 709.8944,612.7588 692.0064,562.2148 C685.6864,544.3508 678.2624,527.7108 669.9664,512.1588 C686.5984,517.7388 700.6104,519.5468 711.6304,519.5468 C721.5264,519.5468 731.1344,518.1668 740.2024,515.4468 C798.4424,497.9748 822.8144,454.9148 822.3944,436.8028 C822.2304,429.6628 818.6624,424.5388 812.8624,423.0868 C809.2504,422.1828 800.6584,421.6228 769.0464,421.6228 Z" id="Fill-27" fill="#000000"></path>
            <path d="M207.404297,534.607422 C215.419922,525.332383 216.46948,524.16657 228.479167,519.346354 C240.488853,514.526138 250.877163,513.942107 262.544706,512.476231 C274.212249,511.010354 279.358527,511.50123 288.257812,511.835938 C297.157098,512.170645 297.651827,513.506795 305.27474,514.083333 C312.897653,514.659871 308.432137,517.572039 321.157552,514.324219 C333.882967,511.076398 341.920573,504.730469 341.920573,504.730469 C341.920573,504.730469 371.144347,476.818589 397.644531,470.876302 C424.144715,464.934015 437.852865,461.90625 475.56901,474.761719 C513.285156,487.617188 519.73355,496.437732 536.147135,508.388021 C552.560721,520.338309 552.338796,525.076745 556.77474,533.885417 C561.210683,542.694089 560.182255,546.189243 558.030599,551.843099 C555.878943,557.496955 549.969677,561.409045 545.796224,562.733398 C541.62277,564.057752 531.272135,564.921549 531.272135,560.33431 C531.272135,555.74707 519.00944,551.843099 519.00944,551.843099 C519.00944,551.843099 498.119984,545.778349 483.387044,543.779297 C468.654104,541.780245 450.474447,542.115234 450.474447,542.115234 C450.474447,542.115234 451.46027,540.715965 451.691895,539.581706 C451.923519,538.447446 451.818024,538.103671 451.691895,537.372559 C451.456706,536.009277 451.161784,534.713542 450.092773,533.472982 C449.023763,532.232422 447.913273,531.25792 445.588867,530.977865 C443.264462,530.69781 443.159703,531.061467 439.558594,532.203776 C426.172852,536.44987 409.181641,540.351237 409.181641,540.351237 C409.181641,540.351237 385.145479,549.90681 359.33724,545.269531 C348.991978,543.410673 338.677734,541.160807 332.5,538.877604 C326.322266,536.594401 321.330078,532.634115 315.226562,530.432292 C308.184957,527.892056 308.302083,530.309245 306.273437,532.203776 C304.244792,534.098307 304.527995,536.109701 300.664714,540.351237 C296.801432,544.592773 283.902344,558.196615 268.990885,565.729167 C254.079427,573.261719 234.518609,585.844611 220.102214,581.544271 C205.685818,577.243931 199.902742,558.812019 200.09375,554.497396 C200.284758,550.182772 199.388672,543.882461 207.404297,534.607422 Z" id="Path-5" fill="#FDEACB"></path>
            <path d="M298.4304,493.3656 C286.5624,502.2696 290.1384,513.2776 303.4064,514.9336 C316.6824,516.5936 317.7144,517.4736 329.9544,508.2976 C343.2224,498.3416 344.8864,481.7496 329.9544,483.4136 C315.0224,485.0736 305.0704,488.3896 298.4304,493.3656" id="Fill-29" fill="#000000"></path>
            <path d="M263.592,500.0048 C263.592,508.2528 256.908,514.9368 248.66,514.9368 C240.42,514.9368 233.732,508.2528 233.732,500.0048 C233.732,491.7568 240.42,485.0728 248.66,485.0728 C256.908,485.0728 263.592,491.7568 263.592,500.0048" id="Fill-31" fill="#000000"></path>
            <path d="M421.194,473.4644 C412.946,473.4644 406.266,466.7804 406.266,458.5324 C406.266,450.2844 412.946,443.6004 421.194,443.6004 C429.442,443.6004 436.126,450.2844 436.126,458.5324 C436.126,466.7804 429.442,473.4644 421.194,473.4644 Z" id="Fill-33" fill="#000000"></path>
            <path d="M65.702,860.9272 C54.986,860.9272 45.526,865.2912 39.078,873.2152 C31.538,882.4712 29.03,895.5032 32.01,909.9152 C39.618,946.6712 104.954,1017.9672 149.206,1028.5872 C152.59,1029.3992 155.654,1029.8112 158.314,1029.8112 C165.214,1029.8112 167.782,1027.1072 169.114,1025.0712 C174.51,1016.8152 171.45,998.8632 167.17,989.0712 C154.918,961.0672 116.09,887.6472 96.462,872.5472 C86.582,864.9472 75.946,860.9272 65.702,860.9272 M158.314,1044.7432 L158.314,1044.7432 C154.482,1044.7432 150.246,1044.1912 145.726,1043.1072 C95.234,1030.9872 26.13,955.1712 17.39,912.9352 C13.482,894.0512 17.07,876.5912 27.494,863.7912 C36.706,852.4832 50.63,845.9952 65.702,845.9952 C79.266,845.9952 93.054,851.0912 105.57,860.7192 C130.15,879.6312 171.85,962.5152 180.846,983.0832 C184.59,991.6392 192.018,1017.3192 181.61,1033.2432 C178.178,1038.4912 171.35,1044.7432 158.314,1044.7432" id="Fill-35" fill="#000000"></path>
        </g>
    </g>
</svg>