<?xml version="1.0" encoding="UTF-8"?>
<svg width="1500px" height="1500px" viewBox="0 0 1500 1500" version="1.1" xmlns="http://www.w3.org/2000/svg" xmlns:xlink="http://www.w3.org/1999/xlink">
    <!-- Generator: Sketch 42 (36781) - http://www.bohemiancoding.com/sketch -->
    <title>Sticker - Hexagon</title>
    <desc>Created with Sketch.</desc>
    <defs>
        <polygon id="path-1" points="750 0 1399.51905 375 1399.51905 1125 750 1500 100.480947 1125 100.480947 375"></polygon>
        <mask id="mask-2" maskContentUnits="userSpaceOnUse" maskUnits="objectBoundingBox" x="0" y="0" width="1500" height="1500" fill="white">
            <use xlink:href="#path-1"></use>
        </mask>
        <path d="M1.33394688,98.356909 C6.32576066,106.285084 11.2196957,106.388556 21.9164396,103.211693 C32.6131834,100.03483 62.0061575,91.7738671 100.248764,91.7738671 C138.491371,91.7738671 157.825212,90.2357733 185.793351,96.7237329 C213.761491,103.211693 257.390223,120.561392 257.390223,120.561392 C257.390223,120.561392 318.094594,147.35219 332.0493,153.728289 C346.004007,160.104387 363.722848,163.051934 370.859604,163.051934 C377.996359,163.051934 384.431999,161.641931 396.136778,157.724536 C407.841558,153.807141 416.587511,133.471909 411.435919,120.561392 C406.284327,107.650874 398.099464,87.4204158 322.385876,48.8680392 C246.672288,10.3156626 226.60843,-4.2188826 139.377873,1.13958774 C52.1473154,6.49805808 8.63709628,72.2456679 8.63709628,72.2456679 C8.63709628,72.2456679 -3.65786691,90.4287341 1.33394688,98.356909 Z" id="path-3"></path>
    </defs>
    <g id="WordCamp-Raleigh-2017-Logo" stroke="none" stroke-width="1" fill="none" fill-rule="evenodd">
        <g id="Sticker---Hexagon">
            <use id="Polygon" stroke="#245038" mask="url(#mask-2)" stroke-width="100" fill="#3B835B" xlink:href="#path-1"></use>
            <text id="because-the-only-thi" transform="translate(1014.407929, 1208.319219) rotate(-30.000000) translate(-1014.407929, -1208.319219) " font-family="Biko-Bold, Biko" font-size="40" font-weight="bold" fill="#9CCFB3">
                <tspan x="663.167929" y="1198.31922">because the only thing worth discussing</tspan>
                <tspan x="751.927929" y="1246.31922">more than BBQ is WordPress.</tspan>
            </text>
            <text id="2017" transform="translate(750.000000, 749.500000) rotate(-30.000000) translate(-750.000000, -749.500000) " font-family="Biko-Bold, Biko" font-size="550" font-weight="bold" fill="#9CCFB3">
                <tspan x="206.325" y="942">2017</tspan>
            </text>
            <g id="Squirrel-Wapuu" transform="translate(393.000000, 350.000000)">
                <path d="M503.130085,666.878864 C503.130085,666.878864 507.173873,665.653982 522.507271,654.098702 C537.840669,642.543423 557.525474,623.630461 561.367912,617.492068 C565.21035,611.353675 577.278794,596.757164 579.118914,591.966701 C580.959033,587.176238 595.868756,559.340933 597.82633,551.889567 C599.783904,544.438202 611.71392,514.411813 613.885429,486.433885 C616.056937,458.455957 615.518605,459.272545 615.518605,449.964281 C615.518605,440.656016 613.888225,423.272759 611.969803,413.256971 C610.05138,403.241183 600.127878,369.706542 596.727292,364.85036 C593.326706,359.994178 583.675866,338.701366 580.090709,332.90415 C576.505552,327.106934 564.195697,309.139201 561.774808,305.221257 C559.353918,301.303312 554.172721,293.718489 545.107463,280.85715 C536.042205,267.995812 531.531614,262.253315 526.740525,255.516355 C521.949436,248.779394 520.182781,246.552365 517.319001,241.782575 C514.45522,237.012784 514.286806,238.669568 512.245388,231.373874 C510.20397,224.07818 508.885352,222.573879 509.976001,215.539896 C511.066649,208.505913 510.421349,200.0443 513.870175,195.241252 C517.319001,190.438204 520.57976,181.364849 526.89783,178.069133 C533.2159,174.773417 540.909865,170.872951 546.309274,170.113692 C551.708682,169.354433 569.596015,170.739416 572.447781,171.8014 C575.299547,172.863384 584.22572,175.597164 601.428965,182.782691 C618.632211,189.968219 622.700422,192.786307 635.64666,198.198587 C648.592899,203.610867 651.58847,204.497113 661.725042,207.989953 C671.861614,211.482793 672.252379,213.179341 682.111777,214.209445 C691.971176,215.239549 696.984446,214.79462 702.00842,212.198737 C707.032394,209.602854 713.142822,200.919615 713.142822,200.919615 C713.142822,200.919615 714.995526,184.136913 713.142822,180.136471 C711.290118,176.136029 706.983455,155.147339 698.371527,141.762427 C689.7596,128.377514 685.324958,117.859679 661.725042,94.6911609 C638.125126,71.5226426 615.228017,56.3982163 611.682459,54.7384732 C608.1369,53.0787301 552.827296,11.0789792 493.258318,3.47660063 C433.689341,-4.12577795 403.732865,4.50153047 398.665545,6.5569832 C395.739678,7.7438 367.544057,13.9062559 340.935288,32.8220336 C314.32652,51.7378114 302.578782,68.7698503 293.069807,83.6923914 C270.568724,119.003592 271.32118,138.66871 275.037753,175.606085 C278.754327,212.543461 314.037522,255.018572 319.046814,260.87801 C324.056106,266.737449 424.973941,337.462501 424.973941,337.462501 L494.213335,391.746029 C494.213335,391.746029 503.17585,396.753071 511.621761,414.627273 C520.067672,432.501475 521.373234,430.956218 526.740525,461.562907 C532.107816,492.169595 532.872625,495.953288 529.885228,518.773707 C526.89783,541.594126 514.131651,573.384429 514.131651,573.384429 L495.000559,630.416251 L488.712552,664.366178 L495.296293,668.879785 L500.481767,667.910785 L503.130085,666.878864 Z" id="Path-2" fill="#000000"></path>
                <path d="M584.564489,543.369281 C586.522063,535.917916 595.861089,499.372805 598.032598,471.394877 C600.204107,443.41695 599.124645,432.397206 595.606605,414.896494 C592.088564,397.395782 567.252543,348.961206 563.667386,343.16399 C560.082229,337.366775 528.992458,289.633429 526.897154,286.928481 C524.801851,284.223534 499.425482,253.828441 494.071434,244.776319 C488.717386,235.724198 489.081766,234.323936 488.21689,221.531526 C487.352013,208.739116 490.722584,195.243404 490.722584,195.243404 C490.722584,195.243404 499.825291,174.438952 509.975325,164.412312 C520.12536,154.385673 541.790765,147.731701 551.024254,148.54198 C561.526911,149.463633 576.048585,153.77965 577.566162,154.344789 C580.417927,155.406773 609.947233,168.232378 609.947233,168.232378 C609.947233,168.232378 653.196335,190.989875 659.162042,192.662902 C665.127749,194.335929 685.62285,203.960901 691.582265,195.243404 C697.541679,186.525908 693.434969,174.402931 691.582265,170.402489 C689.729561,166.402047 681.765031,147.212927 676.046118,139.976195 C670.327205,132.739464 651.389014,112.602982 640.456024,102.518016 C629.523034,92.4330504 594.529586,65.12586 592.088564,63.9831714 C588.543006,62.3234283 541.840435,28.6419688 482.271458,21.0395903 C468.044803,19.2239402 445.620248,16.5480086 422.211688,21.0395903 C396.099966,26.0498487 367.476637,37.372914 346.681491,54.6539329 C329.366457,69.0429362 312.372207,86.810363 303.612065,104.197335 C294.851924,121.584307 293.485133,147.547949 293.232728,151.695072 C292.307984,166.889029 300.340971,186.997285 303.612065,195.243404 C309.849036,210.966219 320.922613,235.845587 341.963737,254.734778 C363.004862,273.623969 429.745552,315.735749 429.745552,315.735749 C429.745552,315.735749 467.589453,343.329944 495.717626,369.134006 C523.845799,394.938069 533.062276,418.217277 533.796204,419.863139 C536.044618,424.905291 542.949495,437.877395 546.308598,465.432666 C549.667702,492.987937 549.25192,497.983842 546.308598,522.504339 C543.365277,547.024836 537.503305,555.009777 533.796204,569.672085 C530.089104,584.334393 528.649183,588.84093 526.897154,599.280392 C525.145126,609.719855 524.658684,628.216866 549.140788,603.150796 C573.622893,578.084726 582.606915,550.820647 584.564489,543.369281 Z" id="Path-3" fill="#D36E2A"></path>
                <path d="M584.56183,543.36755 C586.519404,535.916184 595.85843,499.371073 598.029939,471.393146 C600.201448,443.415218 599.121986,432.395474 595.603945,414.894762 C592.085905,397.394051 567.249884,348.959474 563.664727,343.162259 C560.07957,337.365043 528.989798,289.631698 526.894495,286.92675 C524.799192,284.221802 499.422823,253.826709 494.068775,244.774588 C488.714727,235.722466 489.079107,234.322204 488.21423,221.529794 C487.349354,208.737384 490.719925,195.241673 490.719925,195.241673 C490.719925,195.241673 499.822631,174.43722 509.972666,164.410581 C520.1227,154.383941 541.788106,147.72997 551.021595,148.540248 C561.524251,149.461902 609.944573,168.230647 609.944573,168.230647 C609.944573,168.230647 650.32995,189.671596 656.016078,191.534866 C664.023255,194.158715 694.727716,207.001649 686.805921,191.534866 C678.884127,176.068083 645.608776,145.582913 645.608776,145.582913 C645.608776,145.582913 626.777509,124.733487 577.563502,108.355448 C528.349496,91.97741 499.150982,89.8893974 476.58879,99.7589017 C466.886513,104.003022 453.52243,112.495682 445.750255,126.76783 C435.4486,145.684897 432.096019,171.011109 431.952155,173.374871 C431.02741,188.568828 427.579609,208.356788 445.750255,248.456225 C463.9209,288.555662 494.068775,310.455391 494.068775,310.455391 C494.068775,310.455391 530.634073,353.56099 546.305939,379.552162 C561.977805,405.543334 567.183983,410.413356 573.017736,441.389129 C578.851489,472.364901 574.806819,495.046233 571.574025,513.719392 C568.341231,532.392551 567.216081,535.046955 562.741171,557.040505 C558.266262,579.034056 552.375817,599.72261 552.375817,599.72261 C552.375817,599.72261 571.758517,576.742909 577.563502,564.020655 C581.914397,554.485198 584.050536,545.31375 584.56183,543.36755 Z" id="Path-4" fill="#FDEACB"></path>
                <path d="M550.488825,290.242265 C542.642421,290.242265 533.725011,290.288083 524.243462,290.336765 C513.539134,290.388311 502.113166,290.445584 490.707244,290.445584 C472.374149,290.445584 446.698653,290.313856 428.425695,289.26576 C399.164907,267.991695 365.454006,256.637319 328.149222,255.50904 C247.316941,253.031982 175.748571,287.97998 136.991917,348.053654 C123.893576,360.507673 99.2518581,374.35629 92.5910055,375.836798 C81.4170387,378.319583 74.1834559,388.104679 75.3919167,399.098236 C76.2624666,407.021959 81.8952685,415.92505 94.4638334,420.063026 C93.0119623,421.489125 91.6316824,422.986814 90.3430394,424.536049 C81.8236772,434.799375 78.2612952,446.468754 80.3116694,457.396446 C80.7240351,459.590003 81.2967654,461.683332 82.0298601,463.67357 C63.5994012,495.044868 53.9059421,530.651507 53.9059421,567.263287 C53.9059421,576.507153 54.5273544,585.710927 55.7644517,594.820202 C52.8664367,594.316199 49.9483762,594.058471 47.036043,594.058471 C33.0184705,594.058471 20.0260853,600.138002 11.3950407,610.736375 C1.86480963,622.445844 -1.47707127,638.107153 1.98508298,654.839466 C9.03825578,688.922642 60.6670225,746.376075 101.832008,756.258536 C105.886938,757.22645 109.758594,757.721861 113.338158,757.721861 C124.35176,757.721861 133.44958,753.079883 138.962109,744.649294 C140.7118,741.968916 141.97467,739.128174 142.853811,736.218705 C170.946228,755.597032 203.422896,767.592867 237.829665,771.080794 C245.283749,795.401783 265.297807,799.456713 277.783326,799.456713 C296.611832,799.456713 312.874507,791.79931 324.475158,777.690101 C325.523254,777.707283 326.574214,777.718737 327.628038,777.718737 C335.586124,777.718737 345.477175,777.17178 356.794325,775.424953 C364.747217,774.197406 402.637066,767.690172 430.997676,753.940571 C450.162326,744.649294 474.87428,732.118986 496.397428,690.337593 C542.577998,600.205291 534.867608,481.027296 505.495138,398.01864 C503.456219,392.256974 501.254071,386.615581 498.891559,381.105916 C502.468259,381.518282 505.999141,381.727328 509.478477,381.727328 C517.596928,381.727328 525.509196,380.587595 532.991917,378.342493 C579.0652,364.519649 599.883944,330.316199 599.448669,311.553557 C599.219577,301.648187 593.36341,293.818965 584.53191,291.61109 C580.826346,290.686131 574.786905,290.242265 550.488825,290.242265 Z" id="Fill-1" fill="#000000"></path>
                <path d="M103.173628,674.204048 C98.5516954,665.707595 93.5288513,656.953414 88.6005076,649.086964 C92.8272568,657.855464 97.6954637,666.251689 103.173628,674.204048" id="Fill-3" fill="#005683"></path>
                <path d="M356.278868,462.04587 C337.218405,458.10835 314.472424,463.15124 294.406821,467.601354 C279.197969,470.977598 266.065265,473.901386 255.844894,472.816062 C240.149222,471.166599 227.709522,462.904966 224.164322,451.768226 C221.667218,443.924686 222.35163,431.34753 239.811311,415.981178 C247.079258,409.586645 255.770439,404.243072 265.303534,399.896049 C251.558008,399.918959 237.972847,397.272945 224.920325,390.342909 C208.059147,413.758985 165.267608,430.723254 152.097677,424.875678 C149.173889,423.575581 145.909326,421.344797 142.891038,418.234871 C145.528461,422.178119 148.062792,426.737052 149.156707,432.060579 C151.376036,442.859408 147.596017,454.41424 139.042291,462.965103 C131.593934,470.416323 122.212613,474.68889 113.306658,474.68889 C107.08108,474.68889 101.76328,472.521106 97.7799414,468.738223 C80.1656232,497.423417 69.9395249,531.128591 69.9395249,567.262141 C69.9395249,584.088955 72.1874911,600.377403 76.316876,615.901256 C93.9970582,630.474377 123.117527,688.368812 129.469105,702.890387 C129.815607,703.683619 130.207927,704.68876 130.608838,705.848539 C160.914858,733.872229 200.393153,752.116551 244.063833,755.487068 C243.516876,748.26494 243.760286,740.567445 244.012288,732.970179 C244.321562,723.657585 244.642291,714.02999 243.428103,706.117722 C242.425825,699.605779 240.756316,692.624198 238.983716,685.233114 C232.385864,657.664745 224.906007,626.416583 251.265916,608.842356 C256.323124,605.471839 261.812743,603.765103 267.588728,603.765103 C291.279714,603.765103 312.808643,632.324295 323.916746,654.039362 C339.048279,629.552281 363.907634,614.022701 393.474832,611.030185 C408.448864,609.506723 423.388532,611.448279 435.702232,616.010075 C440.046391,600.211311 442.274312,583.836954 442.274312,567.262141 C442.274312,547.434221 439.132886,527.93562 432.935945,509.304705 C404.342389,483.666437 384.62615,467.913492 356.278868,462.04587 Z" id="Fill-5" fill="#D6B68F"></path>
                <path d="M187.031643,428.284855 C93.1010218,436.036759 32.1081158,577.575581 115.182636,651.649645 C199.376843,726.717397 303.396108,629.725532 299.802226,539.726704 C297.015893,469.956707 239.241731,425.776297 187.031643,428.284855 M100.764152,493.306918 C129.343391,449.315509 184.004764,413.531324 244.001119,457.471188 C243.597345,457.454006 205.539421,459.200833 233.202291,500.119544 C248.15055,522.232659 249.104146,539.970114 237.274403,576.046391 C233.007563,593.832528 231.71892,599.201874 227.904536,617.514924 C209.651624,573.892925 194.754911,536.748506 182.991032,489.251988 C193.331676,487.734253 205.0526,486.016062 199.033205,479.360937 C198.274338,478.521887 143.784784,483.928461 143.266463,484.017234 C139.082668,484.730283 138.349574,489.652899 138.343846,489.701582 C137.908571,493.587556 138.61303,493.547465 150.417,492.83728 C153.526925,509.603957 154.947296,517.258497 162.64479,541.734123 C157.086443,564.835197 151.336232,588.718048 150.548728,625.707829 C125.720872,576.292665 115.784003,541.971806 113.888266,499.065721 C117.41342,496.920846 122.121263,497.76276 125.234051,494.572652 C127.358881,492.399141 128.392659,487.487979 125.743781,486.918113 C116.356733,484.893511 109.189014,491.545773 100.764152,493.306918 M231.260735,647.39426 C241.300696,604.104445 257.998646,562.721822 267.823833,519.371871 C269.71957,510.992828 271.360443,497.95176 268.408018,483.41014 C297.668806,529.125467 294.309743,600.126834 231.260735,647.39426 M145.551656,660.21769 C82.2363293,631.443723 70.6127693,563.234416 91.8610609,510.723645 C92.6657468,562.687459 107.218822,603.202395 145.551656,660.21769 M182.664575,666.325857 C174.574761,666.849906 167.991227,666.385994 159.947231,664.713622 C157.521718,640.535815 155.955301,610.327159 168.140137,557.670342 C190.270433,614.989183 214.645831,657.013264 214.817651,657.248083 C210.673947,659.224003 198.068155,665.240534 182.664575,666.325857" id="Fill-9" fill="#101816"></path>
                <g id="Acorn-Top-Shell" transform="translate(55.125285, 387.829483)">
                    <mask id="mask-4" fill="white">
                        <use xlink:href="#path-3"></use>
                    </mask>
                    <use id="Path-6" fill="#101816" xlink:href="#path-3"></use>
                    <path d="M7.10599374,96.7237329 C12.0978075,104.651908 17.5874044,99.9005959 28.2841482,96.7237329 C38.980892,93.5468699 66.0429548,85.6508552 104.285562,85.6508552 C142.528169,85.6508552 163.560903,84.9740939 191.529043,91.4620536 C219.497183,97.9500132 264.689178,115.952703 264.689178,115.952703 C264.689178,115.952703 322.234863,143.006376 336.189569,149.382474 C350.144276,155.758573 366.498409,157.724536 373.635164,157.724536 C380.77192,157.724536 389.765574,157.201584 397.13584,152.433493 C404.506107,147.665402 409.226657,128.577657 404.506107,118.487761 C399.785557,108.397865 369.616544,77.6415809 300.544943,44.2733333 C231.473341,10.9050856 226.903465,0.888987358 139.672907,6.2474577 C52.4423498,11.605928 16.1360031,71.9883868 16.1360031,71.9883868 C16.1360031,71.9883868 2.11417995,88.7955581 7.10599374,96.7237329 Z" id="Path-7" fill="#83413B" mask="url(#mask-4)"></path>
                    <path d="M82.132815,18.9674941 C65.7185287,60.6948287 71.7601127,39.9669934 65.714362,89.8736221" id="Path-8" stroke="#101816" mask="url(#mask-4)"></path>
                    <path d="M36.5115522,46.5343313 C35.4303246,55.1392484 31.4672107,61.8880734 30.3859831,70.4929905 C29.3047555,79.0979076 28.7823327,91.8497907 27.9205988,98.707874" id="Path-9" stroke="#101816" mask="url(#mask-4)"></path>
                    <path d="M133.112238,3.57956394 C116.697951,45.3068986 123.600868,38.1569366 117.555117,88.0635652" id="Path-10" stroke="#101816" mask="url(#mask-4)"></path>
                    <path d="M182.863982,4.00603543 C175.82182,20.2527177 175.569831,23.9294531 174.466688,29.0510978 C173.363545,34.1727424 171.701973,66.9047673 171.662463,89.7107239" id="Path-11" stroke="#101816" mask="url(#mask-4)"></path>
                    <path d="M236.540662,12.5368634 C227.290488,27.3546777 228.385268,24.2186864 222.427951,44.9319171 C216.470634,65.6451478 216.470634,101.89872 216.470634,101.89872" id="Path-12" stroke="#101816" mask="url(#mask-4)"></path>
                    <path d="M287.24882,34.4938527 C263.434605,73.3915717 265.932237,73.9564478 264.237538,89.5820834 C262.542838,105.207719 262.947787,108.944108 261.741631,117.628526" id="Path-13" stroke="#101816" mask="url(#mask-4)"></path>
                    <path d="M338.074434,62.6521569 C333.864514,71.7031181 320.881452,95.1353806 314.372407,142.338004" id="Path-14" stroke="#101816" mask="url(#mask-4)"></path>
                    <path d="M385.418362,93.8516922 C382.78483,104.584327 378.079452,110.897033 375.44592,121.629668 C372.817307,132.342257 372.260539,147.474774 369.631925,158.187363" id="Path-15" stroke="#101816" mask="url(#mask-4)"></path>
                    <path d="M36.9827683,47.2600319 C53.3636036,79.4729135 43.6295155,66.1931832 64.2210127,88.4669653" id="Path-16" stroke="#101816" mask="url(#mask-4)"></path>
                    <path d="M65.7884701,89.4052026 C75.2882039,78.3502557 121.297077,9.64450126 131.995022,4.95545884" id="Path-17" stroke="#101816" mask="url(#mask-4)"></path>
                    <path d="M131.68181,5.13024223 L171.385606,88.6948829" id="Path-18" stroke="#101816" mask="url(#mask-4)"></path>
                    <path d="M171.98826,88.444593 C190.420727,57.0742516 206.915746,32.5718139 236.988107,11.5706608" id="Path-19" stroke="#101816" mask="url(#mask-4)"></path>
                    <path d="M237.0748,11.8307385 C262.48021,101.405106 258.351435,66.0534215 262.193271,115.610128" id="Path-20" stroke="#101816" mask="url(#mask-4)"></path>
                    <path d="M261.308168,115.898171 C280.549951,82.3746082 303.726753,73.6262663 338.474338,60.8623749" id="Path-21" stroke="#101816" mask="url(#mask-4)"></path>
                    <path d="M337.673131,62.0061575 C368.30351,139.7725 364.746903,109.470239 370.24157,159.23886" id="Path-22" stroke="#101816" mask="url(#mask-4)"></path>
                    <path d="M370.796682,159.613595 C394.603089,129.856023 381.437184,141.509052 408.741458,122.974801" id="Path-23" stroke="#101816" mask="url(#mask-4)"></path>
                    <path d="M36.8205693,47.4446032 C19.8091535,61.4639275 16.3531384,80.2218612 11.5203232,100.752141" id="Path-24" stroke="#101816" mask="url(#mask-4)"></path>
                </g>
                <path d="M319.134162,681.932756 C319.076889,681.709391 319.028207,681.48889 318.970934,681.262662 C318.45834,679.22947 317.897065,677.141868 317.264198,674.965493 C311.972171,655.910758 286.809268,618.016062 267.588441,618.016062 C264.636017,618.016062 261.884048,618.895203 259.172171,620.702167 C242.342493,631.924816 245.738783,652.225239 252.846365,681.918438 C254.604647,689.263703 256.420202,696.858106 257.514116,703.948506 C258.931624,713.17519 258.587986,723.481471 258.258666,733.44125 C257.743209,748.91642 257.210569,764.915639 263.880013,771.811311 C266.800937,774.826736 271.348415,776.295789 277.783039,776.295789 C279.647276,776.295789 281.402694,776.15547 283.097976,775.94356 C283.613433,775.88056 284.100254,775.783196 284.601393,775.70015 C285.781217,775.505421 286.929541,775.273466 288.02632,774.987101 C288.518868,774.858236 289.005688,774.729372 289.478191,774.583326 C290.623651,774.231097 291.723293,773.830185 292.77998,773.38632 C293.089255,773.257455 293.415711,773.145773 293.716394,773.008318 C295.073765,772.389769 296.362408,771.70822 297.573733,770.960807 C297.691142,770.886352 297.797097,770.800443 297.914507,770.725988 C298.985513,770.044439 299.999245,769.314208 300.958568,768.549613 C301.239206,768.326248 301.508389,768.091429 301.780436,767.862336 C302.56794,767.195106 303.32108,766.504966 304.031266,765.79478 C304.271813,765.554234 304.518087,765.319414 304.750042,765.076004 C305.549001,764.23409 306.305005,763.372131 307.009463,762.495854 C307.089645,762.395626 307.181282,762.295399 307.261464,762.195171 C308.048968,761.195757 308.773472,760.17916 309.44643,759.159701 C309.603931,758.919154 309.74425,758.681471 309.896023,758.443788 C310.374253,757.687784 310.829574,756.934644 311.25053,756.184367 C311.450986,755.826411 311.642851,755.471318 311.831852,755.116225 C312.161171,754.494813 312.467582,753.884855 312.762538,753.277761 C312.945812,752.894032 313.137677,752.507439 313.306632,752.132301 C313.550042,751.599662 313.761952,751.089932 313.976726,750.577338 C314.420592,749.503469 314.827231,748.466827 315.162278,747.513231 C315.17946,747.461686 315.202369,747.404413 315.219551,747.352867 C315.457234,746.668454 315.669144,746.021269 315.855281,745.417039 L315.855281,745.417039 C316.662831,742.785343 317.029378,740.941152 317.086651,740.629014 C317.138197,740.325467 317.215516,740.004738 317.307153,739.709782 C322.647862,722.802786 324.7956,708.581894 320.442851,687.651468 C320.059121,685.798685 319.618119,683.88863 319.134162,681.932756" id="Fill-11" fill="#FDEACB"></path>
                <path d="M490.529411,311.827035 C469.252483,311.827035 438.774644,311.649489 419.874546,310.117436 C418.227947,309.985708 416.773212,309.985708 415.833934,310.063026 C417.225669,312.339629 420.642005,316.325831 426.102987,320.876173 L427.47754,322.041679 C464.610504,353.702206 492.556876,360.348741 509.463872,360.351604 L509.472463,360.351604 C515.50904,360.351604 521.353752,359.512555 526.851962,357.865955 C552.934097,350.039596 568.956225,333.874286 575.253394,321.357267 C577.601588,316.678061 578.076954,313.608226 578.076954,312.164946 C574.52889,311.804126 565.299343,311.623716 550.571585,311.623716 C542.730908,311.623716 533.819226,311.666671 524.334813,311.715353 C513.550303,311.769762 502.029834,311.827035 490.529411,311.827035" id="Fill-13" fill="#D36E2A"></path>
                <path d="M27.9755809,624.233908 C22.5804621,630.863261 20.7849528,640.190172 22.9155093,650.507908 C28.3621738,676.821998 75.1370517,727.863716 106.817624,735.46671 C109.240273,736.048031 111.436694,736.342987 113.338158,736.342987 C118.28082,736.342987 120.11642,734.410023 121.070016,732.952424 C124.933082,727.038985 122.745252,714.186918 119.678282,707.179564 C110.906918,687.128279 83.1094566,634.568825 69.0575203,623.758542 C61.984302,618.314741 54.3727172,615.436772 47.036043,615.436772 C39.3643215,615.436772 32.5917865,618.561015 27.9755809,624.233908" id="Fill-15" fill="#FDEACB"></path>
                <path d="M101.324282,453.451767 C102.959427,462.168721 108.744003,464.001458 113.308663,464.001458 C119.310875,464.001458 126.100592,460.788441 131.484256,455.407641 C137.486469,449.402564 140.181165,441.481705 138.686339,434.210895 C137.76138,429.694917 135.295776,426.235626 132.094214,424.955574 C131.567302,424.746528 130.848526,424.634845 130.009476,424.634845 C124.253537,424.634845 113.741074,429.818054 106.793856,438.188506 C104.256661,441.249749 100.170231,447.297781 101.324282,453.451767" id="Fill-17" fill="#D36E2A"></path>
                <path d="M97.2286886,396.706515 C96.7304133,396.815334 96.5757761,396.987153 96.5700488,396.987153 C96.6244582,396.969971 96.9394598,397.56561 98.1221477,398.367432 C100.289932,399.827895 109.118568,403.942961 133.024328,397.557019 C132.291233,392.012991 132.569007,385.097273 134.974474,376.881458 C121.00272,386.594963 105.246912,394.92246 97.2286886,396.706515" id="Fill-21" fill="#D36E2A"></path>
                <path d="M130.009476,424.634559 C124.253537,424.634559 113.741074,429.817768 106.793856,438.18822 C104.256661,441.249463 100.170231,447.297494 101.324282,453.451481 C102.959427,462.171298 108.741139,464.001171 113.308663,464.001171 C119.310875,464.001171 126.100592,460.788155 131.484256,455.407354 C137.486469,449.402278 140.181165,441.481419 138.686339,434.210609 C137.76138,429.694631 135.295776,426.23534 132.094214,424.955288 C131.567302,424.746241 130.848526,424.634559 130.009476,424.634559 M113.308663,474.688318 L113.308663,474.688318 C101.665057,474.688318 93.045467,467.308689 90.8175464,455.421673 C89.3656752,447.67836 92.117644,439.136089 98.56945,431.364139 C106.942766,421.272633 120.167107,413.944549 130.009476,413.944549 C132.225942,413.944549 134.261998,414.311097 136.060371,415.029873 C142.609541,417.650114 147.503521,424.01601 149.155848,432.060007 C151.378041,442.861699 147.595158,454.413667 139.041432,462.96453 C131.593075,470.41575 122.211754,474.688318 113.308663,474.688318" id="Fill-23" fill="#000000"></path>
                <path d="M485.341048,405.151136 C479.367472,388.267048 472.027934,372.900696 463.52289,359.086443 C450.751006,352.863729 436.37834,343.677136 420.542349,330.175021 L419.262297,329.086834 C401.748207,314.499395 404.165129,307.832815 404.95836,305.639258 C405.591227,303.886704 406.716642,302.515015 408.268741,301.486964 C384.529073,286.28384 357.275705,277.778796 327.508051,276.87961 C253.528487,274.640234 188.692561,306.117488 154.033791,361.085272 C144.560833,376.116577 141.28768,389.779056 144.575151,400.59793 C146.969164,408.478698 152.461647,413.341178 156.439258,415.110914 C163.171702,418.106294 206.020514,403.238217 218.468806,380.601054 C219.176128,379.318139 220.373134,378.381725 221.787777,378.00945 C223.208148,377.640039 224.711565,377.86054 225.95439,378.625135 C255.183677,396.611728 288.041211,388.390185 316.540267,379.27232 C319.360963,378.375997 322.356342,379.922369 323.258392,382.734474 C323.739486,384.246482 323.498939,385.801445 322.751526,387.070042 C341.588623,386.574631 360.485857,389.446873 377.137989,396.021816 C379.88423,397.104276 381.230146,400.208474 380.147686,402.954715 C379.062363,405.700957 375.955301,407.0526 373.214787,405.961549 C332.238802,389.793375 276.74697,397.714234 246.876225,424.005415 C236.632945,433.017325 232.182831,441.725688 234.350615,448.523996 C236.572808,455.505578 245.662037,460.998061 256.967732,462.186476 C265.464185,463.06848 278.39357,460.207693 292.093277,457.166495 C313.206977,452.478698 337.141373,447.166625 358.444074,451.579512 C392.971116,458.724322 415.874598,479.434247 450.544823,510.788363 L454.768708,514.60561 C456.959401,516.581529 457.128357,519.963501 455.152437,522.154195 C454.098614,523.322564 452.643879,523.91534 451.186281,523.91534 C449.974956,523.91534 448.77795,523.477201 447.784263,522.649606 C451.20919,537.202681 452.964608,552.142349 452.964608,567.262428 C452.964608,585.392203 450.447459,603.304341 445.530569,620.552112 C451.037371,623.667764 455.662167,627.404829 458.975412,631.697442 C460.782376,634.031318 460.349964,637.390381 458.016089,639.191617 C455.685076,640.998581 452.320286,640.569034 450.521913,638.232294 C441.286638,626.285142 417.776062,619.323606 394.548988,621.663209 C377.633401,623.378536 346.814787,631.482668 329.349378,666.181529 C330.013746,667.96272 330.56643,669.612184 330.967341,671.061191 C340.125298,702.446808 337.957514,721.487224 331.038933,743.55452 C330.357384,747.277267 329.040104,751.715926 327.064185,756.343586 C350.586215,756.412314 392.100566,751.243423 436.280976,720.825721 C519.925363,663.231969 512.565779,482.08026 485.341048,405.151136" id="Fill-25" fill="#D36E2A"></path>
                <path d="M575.251962,321.357553 C568.957657,333.874572 552.935529,350.039883 526.85053,357.866241 C521.355184,359.512841 515.507608,360.351891 509.471032,360.351891 L509.465304,360.351891 C492.558308,360.349027 464.609073,353.702493 427.476108,322.041966 L426.101555,320.876459 C420.643436,316.326118 417.227101,312.339915 415.835366,310.063313 C416.774644,309.985994 418.229378,309.985994 419.873114,310.117722 C438.776075,311.649775 469.251051,311.827322 490.527979,311.827322 C502.028402,311.827322 513.548871,311.770049 524.336245,311.715639 C533.817794,311.666957 542.73234,311.624003 550.570153,311.624003 C565.300774,311.624003 574.527459,311.804413 578.078386,312.165233 C578.078386,313.608513 577.600156,316.678347 575.251962,321.357553 M485.341907,405.150849 C512.563775,482.079974 519.923358,663.231682 436.278972,720.825434 C392.101425,751.243137 350.584211,756.412027 327.065044,756.3433 C329.040963,751.715639 330.358243,747.27698 331.039792,743.554234 C337.958373,721.486938 340.126157,702.446521 330.9682,671.060905 C330.567289,669.611897 330.014605,667.962434 329.350238,666.181243 C346.812782,631.482382 377.63426,623.378249 394.549847,621.662922 C417.776922,619.323319 441.287498,626.287719 450.522773,638.232008 C452.321145,640.568747 455.685936,640.998295 458.016948,639.191331 C460.350823,637.390094 460.783235,634.031032 458.976271,631.697156 C455.663026,627.407406 451.03823,623.667478 445.531429,620.551826 C450.448318,603.304055 452.965467,585.39478 452.965467,567.262141 C452.965467,552.142063 451.207185,537.202395 447.785122,522.64932 C448.778809,523.476915 449.975815,523.915054 451.18714,523.915054 C452.644738,523.915054 454.099473,523.322278 455.153296,522.153908 C457.129216,519.963215 456.957397,516.584107 454.769567,514.605324 L450.545682,510.788077 C415.875457,479.436824 392.969112,458.724035 358.44207,451.579226 C337.142232,447.166339 313.204972,452.478412 292.091272,457.166209 C278.394429,460.207406 265.465044,463.071058 256.965727,462.186189 C245.662896,461.000638 236.573667,455.508155 234.34861,448.52371 C232.180827,441.725402 236.63094,433.019902 246.877084,424.005129 C276.747829,397.713947 332.239662,389.793088 373.212782,405.961263 C375.95616,407.052314 379.063222,405.70067 380.148545,402.954429 C381.231006,400.208187 379.885089,397.10399 377.138848,396.021529 C360.483853,389.446586 341.586619,386.577208 322.752385,387.069756 C323.499798,385.804022 323.740345,384.246196 323.259252,382.734188 C322.357201,379.922083 319.361822,378.375711 316.538262,379.272034 C288.04207,388.389899 255.184536,396.611442 225.952385,378.624849 C224.712424,377.860254 223.209007,377.639753 221.788637,378.009164 C220.371129,378.381438 219.176987,379.320716 218.469665,380.600768 C206.01851,403.23793 163.172561,418.106007 156.440117,415.110628 C152.462506,413.340892 146.967159,408.478412 144.57601,400.597644 C141.285675,389.781634 144.561692,376.11629 154.03465,361.084985 C188.690556,306.120065 253.529346,274.639948 327.506046,276.879323 C357.276564,277.781373 384.529932,286.283554 408.2696,301.486678 C406.717501,302.514728 405.592086,303.886417 404.956355,305.641835 C404.163124,307.832528 401.749066,314.499108 419.260293,329.086547 L420.543209,330.174735 C436.379199,343.67685 450.749001,352.863443 463.523749,359.089021 C472.028793,372.90041 479.365467,388.266762 485.341907,405.150849 M317.308584,739.70835 C317.214084,740.003306 317.136765,740.324035 317.08522,740.630446 C316.824627,742.085181 310.367094,776.294357 277.784471,776.294357 C271.346983,776.294357 266.799505,774.828168 263.881445,771.80988 C257.209138,764.914208 257.741777,748.914989 258.257234,733.442681 C258.586554,723.480039 258.933056,713.173759 257.512685,703.949938 C256.421634,696.859538 254.603215,689.262271 252.847797,681.917006 C245.737351,652.226671 242.341061,631.923384 259.173602,620.703599 C261.882616,618.896635 264.634585,618.014631 267.589873,618.014631 C286.8107,618.014631 311.970739,655.91219 317.262766,674.964061 C325.532991,703.319935 323.663026,719.594064 317.308584,739.70835 M133.024042,397.556446 C109.118282,403.945252 100.289645,399.830185 98.1218614,398.36686 C96.9391734,397.565037 96.6241718,396.969398 96.5697624,396.989444 C96.5754897,396.989444 96.7301269,396.814761 97.2284022,396.705942 C105.249489,394.921887 121.002434,386.597253 134.974188,376.880885 C132.568721,385.099564 132.293811,392.012418 133.024042,397.556446 M550.570153,300.933993 C542.718021,300.933993 533.78343,300.976948 524.281835,301.02563 C513.511643,301.080039 502.01122,301.137312 490.527979,301.137312 C470.851832,301.137312 443.274871,300.985539 424.626775,299.745578 C396.992541,278.949743 364.186554,267.294683 327.826775,266.192177 C250.302011,263.815347 182.172886,296.956381 145.386424,354.79068 C131.237123,368.753843 104.046756,384.240469 94.9117084,386.270797 C90.6849593,387.210075 87.4919883,390.047953 86.369437,393.859473 C85.2354312,397.719675 86.4524829,401.940696 89.6225447,405.150849 C92.5234234,408.083228 98.568591,411.742974 110.656062,411.742974 C117.159414,411.742974 125.441093,410.663378 135.89342,407.859863 C139.819486,416.762955 146.586294,422.424393 152.095958,424.875678 C165.26589,430.723254 208.057429,413.758985 224.921471,390.342909 C237.973993,397.272945 251.55629,399.918959 265.301816,399.896049 C255.771585,404.243072 247.07754,409.586645 239.812457,415.981178 C222.352776,431.34753 221.6655,443.924686 224.165467,451.768226 C227.710667,462.904966 240.150368,471.166599 255.84604,472.818926 C266.066411,473.901386 279.196251,470.977598 294.405103,467.601354 C314.47357,463.15124 337.216687,458.10835 356.280013,462.04587 C384.627296,467.913492 404.34067,483.666437 432.937091,509.304705 C439.134032,527.93562 442.275457,547.434221 442.275457,567.262141 C442.275457,583.836954 440.044673,600.211311 435.703378,616.010075 C423.386814,611.448279 408.45001,609.506723 393.475978,611.030185 C363.90878,614.022701 339.049424,629.552281 323.917891,654.039362 C312.806925,632.324295 291.277995,603.765103 267.589873,603.765103 C261.813889,603.765103 256.321406,605.471839 251.267062,608.84522 C224.907153,626.416583 232.387009,657.664745 238.984862,685.233114 C240.754598,692.624198 242.424107,699.608643 243.426385,706.117722 C244.643436,714.02999 244.322707,723.657585 244.013433,732.970179 C243.400612,751.409229 242.767745,770.478282 253.635301,781.720976 C259.30533,787.577143 267.426645,790.546749 277.784471,790.546749 C299.204582,790.546749 313.056062,779.387101 321.354924,766.9159 C323.247797,766.987491 325.252353,767.036173 327.440182,767.036173 C341.222935,767.036173 441.980497,759.276359 479.637514,693.44594 C517.294531,627.615522 517.294531,537.135243 517.294531,522.751078 C517.294531,501.016413 508.22248,437.7707 495.416232,401.585604 C490.891663,388.796538 485.576726,376.883749 479.637514,365.749873 C491.544575,369.744666 501.575945,371.039037 509.465304,371.039037 C516.549977,371.039037 523.428467,370.051077 529.920364,368.103794 C571.615125,355.595366 589.063352,324.768161 588.762668,311.801549 C588.645259,306.689932 586.090882,303.021595 581.938588,301.982089 C579.352711,301.334904 573.201588,300.933993 550.570153,300.933993 Z" id="Fill-27" fill="#000000"></path>
                <path d="M148.483389,381.821129 C154.221877,375.181009 154.973269,374.346389 163.571157,370.895535 C172.169046,367.444681 179.606169,367.026565 187.959113,365.977126 C196.312056,364.927686 199.996342,365.27911 206.367454,365.518732 C212.738566,365.758353 213.092749,366.71492 218.55009,367.127671 C224.007431,367.540422 220.810512,369.62528 229.920799,367.300124 C239.031086,364.974968 244.785311,360.431836 244.785311,360.431836 C244.785311,360.431836 265.706985,340.449364 284.678805,336.195205 C303.650626,331.941046 313.464465,329.77343 340.465937,338.976824 C367.467408,348.180219 372.083895,354.49496 383.834591,363.050324 C395.585287,371.605688 395.426408,374.997995 398.602157,381.304236 C401.777905,387.610477 401.041641,390.112703 399.501242,394.16037 C397.960844,398.208038 393.730326,401.008753 390.742497,401.956875 C387.754668,402.904997 380.344516,403.5234 380.344516,400.239337 C380.344516,396.955273 371.565496,394.16037 371.565496,394.16037 C371.565496,394.16037 356.610467,389.818538 346.062967,388.387391 C335.515467,386.956244 322.500417,387.196068 322.500417,387.196068 C322.500417,387.196068 323.206181,386.194313 323.372004,385.382282 C323.537827,384.570251 323.462301,384.324138 323.372004,383.800725 C323.203629,382.824735 322.992491,381.897101 322.227173,381.008968 C321.461854,380.120836 320.66684,379.423177 319.002769,379.222682 C317.338697,379.022187 317.263699,379.282534 314.685619,380.100328 C305.102595,383.140161 292.938369,385.933199 292.938369,385.933199 C292.938369,385.933199 275.730574,392.774156 257.254125,389.454269 C249.84782,388.123489 242.463721,386.512781 238.041002,384.878207 C233.618283,383.243632 230.044312,380.408413 225.674727,378.832099 C220.633552,377.013512 220.717404,378.744009 219.265071,380.100328 C217.812737,381.456647 218.015486,382.896629 215.249714,385.933199 C212.483941,388.969769 203.249319,398.708933 192.574015,404.101584 C181.898711,409.494234 167.894872,418.502487 157.57399,415.423819 C147.253108,412.345151 143.11293,399.149509 143.249675,396.060615 C143.386419,392.971721 142.7449,388.461248 148.483389,381.821129 Z" id="Path-5" fill="#FDEACB"></path>
                <path d="M213.65014,352.295581 C205.153687,358.670068 207.713791,366.550836 217.212522,367.736388 C226.71698,368.924803 227.455802,369.554806 236.218575,362.985591 C245.717306,355.857963 246.908584,343.979538 236.218575,345.170817 C225.528565,346.359232 218.403801,348.733199 213.65014,352.295581" id="Fill-29" fill="#000000"></path>
                <path d="M188.708884,357.048669 C188.708884,362.953518 183.923723,367.738679 178.018874,367.738679 C172.119753,367.738679 167.331728,362.953518 167.331728,357.048669 C167.331728,351.14382 172.119753,346.358659 178.018874,346.358659 C183.923723,346.358659 188.708884,351.14382 188.708884,357.048669" id="Fill-31" fill="#000000"></path>
                <path d="M301.538171,338.048057 C295.633322,338.048057 290.851025,333.262896 290.851025,327.358048 C290.851025,321.453199 295.633322,316.668038 301.538171,316.668038 C307.44302,316.668038 312.228181,321.453199 312.228181,327.358048 C312.228181,333.262896 307.44302,338.048057 301.538171,338.048057 Z" id="Fill-33" fill="#000000"></path>
                <path d="M47.0369021,615.437631 C39.3651806,615.437631 32.5926456,618.561874 27.97644,624.234767 C22.5784575,630.861256 20.7829483,640.191032 22.9163684,650.508767 C28.3630329,676.822857 75.1379108,727.864575 106.818484,735.467569 C109.241132,736.04889 111.434689,736.343846 113.339017,736.343846 C118.278815,736.343846 120.11728,734.408018 121.070875,732.95042 C124.933941,727.039844 122.743248,714.187777 119.679141,707.177559 C110.907777,687.129138 83.1103157,634.566821 69.0583794,623.756538 C61.9851611,618.3156 54.3707127,615.437631 47.0369021,615.437631 M113.339017,747.033856 L113.339017,747.033856 C110.595639,747.033856 107.563033,746.638672 104.327107,745.862623 C68.1792385,737.18576 18.7068012,682.908116 12.4497234,652.670823 C9.65193622,639.151526 12.2206313,626.651689 19.6833062,617.488005 C26.2782948,609.392463 36.2466645,604.747621 47.0369021,604.747621 C56.7475431,604.747621 66.6185486,608.395913 75.5789131,615.288721 C93.1760495,628.828064 123.029613,688.165779 129.469964,702.890674 C132.150342,709.016023 137.468142,727.400664 130.016922,738.800859 C127.559909,742.557969 122.671656,747.033856 113.339017,747.033856" id="Fill-35" fill="#000000"></path>
            </g>
            <text id="WordCamp-Raleigh" transform="translate(483.534862, 289.060889) rotate(-30.000000) translate(-483.534862, -289.060889) " font-family="Biko-Bold, Biko" font-size="70" font-weight="bold" line-spacing="70" fill="#9CCFB3">
                <tspan x="174.034862" y="321.060889">WordCamp Raleigh</tspan>
            </text>
        </g>
    </g>
</svg>